<?xml version="1.0" encoding="UTF-8"?>
<!DOCTYPE svg PUBLIC "-//W3C//DTD SVG 1.1//EN"
    "http://www.w3.org/Graphics/SVG/1.1/DTD/svg11.dtd" >
<svg contentScriptType="text/ecmascript" width="863.0"
     xmlns:xlink="http://www.w3.org/1999/xlink" zoomAndPan="magnify"
     contentStyleType="text/css"
     viewBox="-392.000000 -532.000000 863.000000 1230.000000" height="1230.0"
     preserveAspectRatio="xMidYMid meet" xmlns="http://www.w3.org/2000/svg"
     version="1.1">
    <g id="edges">
        <path stroke-linecap="round" fill="none" class="id_n0 id_n32"
              d="M -293.130890,530.731750 A 48.028534,48.028534 0,0 1,-282.216919,524.365784"
              stroke="#ff7313" stroke-width="3.0" stroke-opacity="0.6"/>
        <path stroke-linecap="round" fill="none" class="id_n1 id_n48"
              d="M -15.034163,639.836731 A 47.432014,47.432014 0,0 1,-24.125463,632.240479"
              stroke="#ff7313" stroke-width="3.0" stroke-opacity="0.6"/>
        <path stroke-linecap="round" fill="none" class="id_n2 id_n45"
              d="M 333.955841,-53.156258 A 60.406905,60.406905 0,0 1,305.645569,-48.508545"
              stroke="#ff7313" stroke-width="3.0" stroke-opacity="0.6"/>
        <path stroke-linecap="round" fill="none" class="id_n3 id_n61"
              d="M 136.814011,-313.296234 A 59.729898,59.729898 0,0 1,137.108536,-285.474915"
              stroke="#ff7313" stroke-width="3.0" stroke-opacity="0.6"/>
        <path stroke-linecap="round" fill="none" class="id_n4 id_n51"
              d="M -330.740326,-401.958221 A 50.055731,50.055731 0,0 1,-325.426300,-414.308044"
              stroke="#ff7313" stroke-width="3.0" stroke-opacity="0.6"/>
        <path stroke-linecap="round" fill="none" class="id_n5 id_n51"
              d="M -334.278931,-504.118713 A 73.045480,73.045480 0,0 1,-303.694397,-473.927856"
              stroke="#ff7313" stroke-width="3.0" stroke-opacity="0.6"/>
        <path stroke-linecap="round" fill="none" class="id_n6 id_n63"
              d="M 47.199379,34.754971 A 96.370102,96.370102 0,0 1,54.620087,-33.012989"
              stroke="#ff7313" stroke-width="3.0" stroke-opacity="0.6"/>
        <path stroke-linecap="round" fill="none" class="id_n7 id_n31"
              d="M 451.144928,-275.953552 A 61.515138,61.515138 0,0 1,426.020325,-260.464691"
              stroke="#ff7313" stroke-width="3.0" stroke-opacity="0.6"/>
        <path stroke-linecap="round" fill="none" class="id_n8 id_n34"
              d="M -128.114685,675.330566 A 48.895198,48.895198 0,0 1,-131.095810,661.880432"
              stroke="#ff7313" stroke-width="3.0" stroke-opacity="0.6"/>
        <path stroke-linecap="round" fill="none" class="id_n9 id_n50"
              d="M -235.358444,632.983948 A 49.190119,49.190119 0,0 1,-229.589828,620.047546"
              stroke="#ff7313" stroke-width="3.0" stroke-opacity="0.6"/>
        <path stroke-linecap="round" fill="none" class="id_n11 id_n63"
              d="M 1.902034,7.945758 A 98.296740,98.296740 0,0 1,42.332371,-49.887367"
              stroke="#ff7313" stroke-width="3.0" stroke-opacity="0.6"/>
        <path stroke-linecap="round" fill="none" class="id_n12 id_n51"
              d="M -253.855362,-465.650818 A 50.158934,50.158934 0,0 1,-261.240356,-454.253540"
              stroke="#ff7313" stroke-width="3.0" stroke-opacity="0.6"/>
        <path stroke-linecap="round" fill="none" class="id_n13 id_n51"
              d="M -309.301697,-484.681335 A 49.842867,49.842867 0,0 1,-301.010925,-474.456604"
              stroke="#ff7313" stroke-width="3.0" stroke-opacity="0.6"/>
        <path stroke-linecap="round" fill="none" class="id_n14 id_n63"
              d="M 70.019798,-156.089630 A 84.378703,84.378703 0,0 1,89.558350,-106.590889"
              stroke="#ff7313" stroke-width="3.0" stroke-opacity="0.6"/>
        <path stroke-linecap="round" fill="none" class="id_n15 id_n63"
              d="M 126.184494,-145.058365 A 84.383554,84.383554 0,0 1,112.450859,-93.639351"
              stroke="#ff7313" stroke-width="3.0" stroke-opacity="0.6"/>
        <path stroke-linecap="round" fill="none" class="id_n16 id_n35"
              d="M 345.648193,118.352074 A 58.997184,58.997184 0,0 1,319.383606,113.629196"
              stroke="#ff7313" stroke-width="3.0" stroke-opacity="0.6"/>
        <path stroke-linecap="round" fill="none" class="id_n17 id_n51"
              d="M -269.843964,-492.567688 A 59.146338,59.146338 0,0 1,-272.342560,-467.405090"
              stroke="#ff7313" stroke-width="3.0" stroke-opacity="0.6"/>
        <path stroke-linecap="round" fill="none" class="id_n18 id_n47"
              d="M -141.503815,446.618744 A 47.789763,47.789763 0,0 1,-132.559662,452.010071"
              stroke="#ff7313" stroke-width="3.0" stroke-opacity="0.6"/>
        <path stroke-linecap="round" fill="none" class="id_n19 id_n63"
              d="M 0.442742,-100.398537 A 81.691942,81.691942 0,0 1,49.738667,-93.036552"
              stroke="#ff7313" stroke-width="3.0" stroke-opacity="0.6"/>
        <path stroke-linecap="round" fill="none" class="id_n20 id_n51"
              d="M -369.154785,-445.376007 A 70.425527,70.425527 0,0 1,-329.992981,-451.701599"
              stroke="#ff7313" stroke-width="3.0" stroke-opacity="0.6"/>
        <path stroke-linecap="round" fill="none" class="id_n21 id_n51"
              d="M -353.967804,-419.891968 A 59.450134,59.450134 0,0 1,-332.879486,-434.541901"
              stroke="#ff7313" stroke-width="3.0" stroke-opacity="0.6"/>
        <path stroke-linecap="round" fill="none" class="id_n22 id_n63"
              d="M 75.134911,-70.800339 A 6.105358,6.105358 0,0 1,NaN,NaN"
              stroke="#ff7313" stroke-width="3.0" stroke-opacity="0.6"/>
        <path stroke-linecap="round" fill="none" class="id_n23 id_n31"
              d="M 439.023071,-251.014069 A 50.541030,50.541030 0,0 1,423.976318,-248.128708"
              stroke="#ff7313" stroke-width="3.0" stroke-opacity="0.6"/>
        <path stroke-linecap="round" fill="none" class="id_n24 id_n35"
              d="M 325.522461,138.444916 A 57.640003,57.640003 0,0 1,305.635651,123.390900"
              stroke="#ff7313" stroke-width="3.0" stroke-opacity="0.6"/>
        <path stroke-linecap="round" fill="none" class="id_n25 id_n51"
              d="M -339.669891,-458.844147 A 49.783946,49.783946 0,0 1,-326.610992,-458.004486"
              stroke="#ff7313" stroke-width="3.0" stroke-opacity="0.6"/>
        <path stroke-linecap="round" fill="none" class="id_n26 id_n47"
              d="M -116.400032,533.681030 A 48.898402,48.898402 0,0 1,-120.478035,522.485962"
              stroke="#ff7313" stroke-width="3.0" stroke-opacity="0.6"/>
        <path stroke-linecap="round" fill="none" class="id_n27 id_n63"
              d="M 73.315689,21.650349 A 81.072086,81.072086 0,0 1,65.023361,-26.707001"
              stroke="#ff7313" stroke-width="3.0" stroke-opacity="0.6"/>
        <path stroke-linecap="round" fill="none" class="id_n28 id_n51"
              d="M -295.471344,-510.824097 A 69.782458,69.782458 0,0 1,-284.683105,-473.495605"
              stroke="#ff7313" stroke-width="3.0" stroke-opacity="0.6"/>
        <path stroke-linecap="round" fill="none" class="id_n29 id_n51"
              d="M -358.487976,-482.159546 A 73.157892,73.157892 0,0 1,-318.077576,-467.123199"
              stroke="#ff7313" stroke-width="3.0" stroke-opacity="0.6"/>
        <path stroke-linecap="round" fill="none" class="id_n30 id_n63"
              d="M 98.693947,-155.751846 A 84.879617,84.879617 0,0 1,101.949394,-102.007088"
              stroke="#ff7313" stroke-width="3.0" stroke-opacity="0.6"/>
        <path stroke-linecap="round" fill="none" class="id_n31 id_n63"
              d="M 384.459442,-248.377365 A 303.621687,303.621687 0,0 1,123.361183,-64.973663"
              stroke="#ff7313" stroke-width="3.0" stroke-opacity="0.6"/>
        <path stroke-linecap="round" fill="none" class="id_n32 id_n47"
              d="M -238.227158,514.637268 A 114.685423,114.685423 0,0 1,-151.264206,477.912933"
              stroke="#ff7313" stroke-width="3.0" stroke-opacity="0.6"/>
        <path stroke-linecap="round" fill="none" class="id_n33 id_n63"
              d="M -6.646863,-61.071072 A 81.651157,81.651157 0,0 1,40.782627,-76.224365"
              stroke="#ff7313" stroke-width="3.0" stroke-opacity="0.6"/>
        <path stroke-linecap="round" fill="none" class="id_n34 id_n47"
              d="M -126.668823,616.919556 A 118.636292,118.636292 0,0 1,-133.102890,517.889160"
              stroke="#ff7313" stroke-width="3.0" stroke-opacity="0.6"/>
        <path stroke-linecap="round" fill="none" class="id_n35 id_n63"
              d="M 279.631866,89.408096 A 217.967750,217.967750 0,0 1,97.303673,-26.540655"
              stroke="#ff7313" stroke-width="3.0" stroke-opacity="0.6"/>
        <path stroke-linecap="round" fill="none" class="id_n36 id_n63"
              d="M 31.669291,8.082528 A 82.141809,82.141809 0,0 1,48.294609,-39.504913"
              stroke="#ff7313" stroke-width="3.0" stroke-opacity="0.6"/>
        <path stroke-linecap="round" fill="none" class="id_n37 id_n63"
              d="M 118.444733,16.860641 A 83.408155,83.408155 0,0 1,85.828697,-23.636206"
              stroke="#ff7313" stroke-width="3.0" stroke-opacity="0.6"/>
        <path stroke-linecap="round" fill="none" class="id_n38 id_n63"
              d="M 145.299667,7.971624 A 89.300921,89.300921 0,0 1,96.860962,-26.361975"
              stroke="#ff7313" stroke-width="3.0" stroke-opacity="0.6"/>
        <path stroke-linecap="round" fill="none" class="id_n39 id_n31"
              d="M 413.490540,-304.375122 A 50.335923,50.335923 0,0 1,411.566498,-289.446838"
              stroke="#ff7313" stroke-width="3.0" stroke-opacity="0.6"/>
        <path stroke-linecap="round" fill="none" class="id_n40 id_n47"
              d="M -164.709106,474.943573 A 51.435141,51.435141 0,0 1,-149.694672,472.213593"
              stroke="#ff7313" stroke-width="3.0" stroke-opacity="0.6"/>
        <path stroke-linecap="round" fill="none" class="id_n41 id_n63"
              d="M 3.874230,-23.220400 A 81.740738,81.740738 0,0 1,40.105347,-57.538189"
              stroke="#ff7313" stroke-width="3.0" stroke-opacity="0.6"/>
        <path stroke-linecap="round" fill="none" class="id_n42 id_n47"
              d="M -153.855850,513.387390 A 49.082789,49.082789 0,0 1,-147.431580,503.064331"
              stroke="#ff7313" stroke-width="3.0" stroke-opacity="0.6"/>
        <path stroke-linecap="round" fill="none" class="id_n43 id_n63"
              d="M 170.953949,-76.566246 A 83.452660,83.452660 0,0 1,122.582306,-57.336170"
              stroke="#ff7313" stroke-width="3.0" stroke-opacity="0.6"/>
        <path stroke-linecap="round" fill="none" class="id_n44 id_n63"
              d="M 158.945587,-17.549080 A 84.173441,84.173441 0,0 1,108.360626,-33.224472"
              stroke="#ff7313" stroke-width="3.0" stroke-opacity="0.6"/>
        <path stroke-linecap="round" fill="none" class="id_n45 id_n63"
              d="M 261.900146,-55.221344 A 158.932184,158.932184 0,0 1,117.624100,-44.204845"
              stroke="#ff7313" stroke-width="3.0" stroke-opacity="0.6"/>
        <path stroke-linecap="round" fill="none" class="id_n46 id_n63"
              d="M -3.743241,-129.247330 A 96.848338,96.848338 0,0 1,58.903835,-100.888596"
              stroke="#ff7313" stroke-width="3.0" stroke-opacity="0.6"/>
        <path stroke-linecap="round" fill="none" class="id_n47 id_n63"
              d="M -117.976761,471.743805 A 486.788514,486.788514 0,0 1,47.411446,-40.674286"
              stroke="#ff7313" stroke-width="3.0" stroke-opacity="0.6"/>
        <path stroke-linecap="round" fill="none" class="id_n48 id_n47"
              d="M -48.123894,593.793884 A 114.211052,114.211052 0,0 1,-109.409142,522.759399"
              stroke="#ff7313" stroke-width="3.0" stroke-opacity="0.6"/>
        <path stroke-linecap="round" fill="none" class="id_n49 id_n63"
              d="M 150.173523,-129.821884 A 86.759100,86.759100 0,0 1,119.667099,-82.626648"
              stroke="#ff7313" stroke-width="3.0" stroke-opacity="0.6"/>
        <path stroke-linecap="round" fill="none" class="id_n50 id_n47"
              d="M -199.645462,586.547485 A 118.911510,118.911510 0,0 1,-148.375610,501.184692"
              stroke="#ff7313" stroke-width="3.0" stroke-opacity="0.6"/>
        <path stroke-linecap="round" fill="none" class="id_n51 id_n63"
              d="M -281.247223,-434.896149 A 440.763532,440.763532 0,0 1,73.185532,-106.594315"
              stroke="#ff7313" stroke-width="3.0" stroke-opacity="0.6"/>
        <path stroke-linecap="round" fill="none" class="id_n52 id_n63"
              d="M -26.791689,-83.287979 A 99.534838,99.534838 0,0 1,45.221989,-86.794502"
              stroke="#ff7313" stroke-width="3.0" stroke-opacity="0.6"/>
        <path stroke-linecap="round" fill="none" class="id_n53 id_n63"
              d="M 169.224258,-45.677872 A 83.255504,83.255504 0,0 1,117.448029,-43.906433"
              stroke="#ff7313" stroke-width="3.0" stroke-opacity="0.6"/>
        <path stroke-linecap="round" fill="none" class="id_n54 id_n63"
              d="M 98.888252,37.694107 A 95.331671,95.331671 0,0 1,73.429886,-24.154240"
              stroke="#ff7313" stroke-width="3.0" stroke-opacity="0.6"/>
        <path stroke-linecap="round" fill="none" class="id_n55 id_n31"
              d="M 438.562836,-299.263580 A 60.713937,60.713937 0,0 1,422.630066,-275.644775"
              stroke="#ff7313" stroke-width="3.0" stroke-opacity="0.6"/>
        <path stroke-linecap="round" fill="none" class="id_n56 id_n47"
              d="M -66.724373,485.546143 A 47.790109,47.790109 0,0 1,-76.348663,489.601654"
              stroke="#ff7313" stroke-width="3.0" stroke-opacity="0.6"/>
        <path stroke-linecap="round" fill="none" class="id_n57 id_n63"
              d="M -24.568819,-34.251404 A 100.193319,100.193319 0,0 1,39.520187,-69.024696"
              stroke="#ff7313" stroke-width="3.0" stroke-opacity="0.6"/>
        <path stroke-linecap="round" fill="none" class="id_n58 id_n47"
              d="M -77.015747,520.362671 A 50.945862,50.945862 0,0 1,-90.591560,514.943726"
              stroke="#ff7313" stroke-width="3.0" stroke-opacity="0.6"/>
        <path stroke-linecap="round" fill="none" class="id_n59 id_n63"
              d="M 40.232059,-158.476334 A 92.994705,92.994705 0,0 1,78.637543,-107.309608"
              stroke="#ff7313" stroke-width="3.0" stroke-opacity="0.6"/>
        <path stroke-linecap="round" fill="none" class="id_n60 id_n63"
              d="M 165.318939,-105.609413 A 85.783930,85.783930 0,0 1,123.058838,-70.446365"
              stroke="#ff7313" stroke-width="3.0" stroke-opacity="0.6"/>
        <path stroke-linecap="round" fill="none" class="id_n61 id_n63"
              d="M 123.602005,-243.106659 A 160.460962,160.460962 0,0 1,108.663895,-97.314903"
              stroke="#ff7313" stroke-width="3.0" stroke-opacity="0.6"/>
        <path stroke-linecap="round" fill="none" class="id_n62 id_n63"
              d="M 27.008863,-134.112747 A 81.233028,81.233028 0,0 1,66.522499,-104.688736"
              stroke="#ff7313" stroke-width="3.0" stroke-opacity="0.6"/>
        <path fill="none" stroke-width="3.0"
              d="M 81.363327,-65.398155 C 117.363327,-101.398155 117.363327,-29.398155 81.363327,-65.398155"
              class="id_n63" stroke-opacity="0.6" stroke="#ff7313"/>
    </g>
    <g id="arrows">
        <polyline fill="#ff7313" fill-opacity="0.6" class="id_n0 id_n32"
                  points="-258.218079,524.130798 -282.099426,536.365234 -282.334412,512.366333"
                  stroke="none"/>
        <polyline fill="#ff7313" fill-opacity="0.6" class="id_n1 id_n48"
                  points="-32.536980,609.762756 -12.886618,628.034729 -35.364304,636.446228"
                  stroke="none"/>
        <polyline fill="#ff7313" fill-opacity="0.6" class="id_n2 id_n45"
                  points="283.369141,-57.439415 310.110992,-59.646759 301.180145,-37.370323"
                  stroke="none"/>
        <polyline fill="#ff7313" fill-opacity="0.6" class="id_n3 id_n61"
                  points="124.928268,-264.795410 126.768791,-291.565033 147.448273,-279.384796"
                  stroke="none"/>
        <polyline fill="#ff7313" fill-opacity="0.6" class="id_n4 id_n51"
                  points="-306.191864,-428.662048 -318.249298,-404.690826 -332.603302,-423.925262"
                  stroke="none"/>
        <polyline fill="#ff7313" fill-opacity="0.6" class="id_n5 id_n51"
                  points="-298.208710,-450.563202 -315.376740,-471.185028 -292.012054,-476.670685"
                  stroke="none"/>
        <polyline fill="#ff7313" fill-opacity="0.6" class="id_n6 id_n63"
                  points="69.901939,-51.518799 63.872993,-25.372063 45.367180,-40.653915"
                  stroke="none"/>
        <polyline fill="#ff7313" fill-opacity="0.6" class="id_n7 id_n31"
                  points="402.020874,-260.305328 425.940643,-272.464417 426.100006,-248.464951"
                  stroke="none"/>
        <polyline fill="#ff7313" fill-opacity="0.6" class="id_n8 id_n34"
                  points="-123.949150,638.969177 -119.640182,665.453735 -142.551437,658.307129"
                  stroke="none"/>
        <polyline fill="#ff7313" fill-opacity="0.6" class="id_n9 id_n50"
                  points="-210.198837,605.905762 -222.518936,629.743042 -236.660721,610.352051"
                  stroke="none"/>
        <polyline fill="#ff7313" fill-opacity="0.6" class="id_n11 id_n63"
                  points="64.635773,-58.750675 46.764023,-38.735664 37.900719,-61.039070"
                  stroke="none"/>
        <polyline fill="#ff7313" fill-opacity="0.6" class="id_n12 id_n51"
                  points="-282.613373,-443.335876 -266.699188,-464.940033 -255.781540,-443.567047"
                  stroke="none"/>
        <polyline fill="#ff7313" fill-opacity="0.6" class="id_n13 id_n51"
                  points="-297.222961,-450.757416 -312.860504,-472.562622 -289.161346,-476.350586"
                  stroke="none"/>
        <polyline fill="#ff7313" fill-opacity="0.6" class="id_n14 id_n63"
                  points="84.875481,-83.052185 77.788994,-108.932335 101.327705,-104.249458"
                  stroke="none"/>
        <polyline fill="#ff7313" fill-opacity="0.6" class="id_n15 id_n63"
                  points="94.686554,-77.501526 104.381943,-102.521500 120.519775,-84.757202"
                  stroke="none"/>
        <polyline fill="#ff7313" fill-opacity="0.6" class="id_n16 id_n35"
                  points="301.333038,97.812202 327.292114,104.603912 311.475098,122.654480"
                  stroke="none"/>
        <polyline fill="#ff7313" fill-opacity="0.6" class="id_n17 id_n51"
                  points="-286.691711,-448.167084 -281.961578,-474.579681 -262.723541,-460.230499"
                  stroke="none"/>
        <polyline fill="#ff7313" fill-opacity="0.6" class="id_n18 id_n47"
                  points="-120.828384,472.947540 -143.028397,457.875702 -122.090935,446.144440"
                  stroke="none"/>
        <polyline fill="#ff7313" fill-opacity="0.6" class="id_n19 id_n63"
                  points="67.809898,-77.243179 41.841980,-84.000931 57.635345,-102.072159"
                  stroke="none"/>
        <polyline fill="#ff7313" fill-opacity="0.6" class="id_n20 id_n51"
                  points="-307.869446,-442.398438 -334.644562,-440.639832 -325.341400,-462.763367"
                  stroke="none"/>
        <polyline fill="#ff7313" fill-opacity="0.6" class="id_n21 id_n51"
                  points="-308.929779,-436.094879 -332.102997,-422.567078 -333.655975,-446.516785"
                  stroke="none"/>
        <polyline fill="#ff7313" fill-opacity="0.6" class="id_n22 id_n63"
                  points="NaN,NaN NaN,NaN NaN,NaN" stroke="none"/>
        <polyline fill="#ff7313" fill-opacity="0.6" class="id_n23 id_n31"
                  points="401.310852,-256.020172 427.922058,-259.461456 420.030579,-236.795959"
                  stroke="none"/>
        <polyline fill="#ff7313" fill-opacity="0.6" class="id_n24 id_n35"
                  points="296.652893,101.135338 316.763428,118.899521 294.507874,127.882278"
                  stroke="none"/>
        <polyline fill="#ff7313" fill-opacity="0.6" class="id_n25 id_n51"
                  points="-306.627075,-444.713776 -333.256348,-448.012512 -319.965637,-467.996460"
                  stroke="none"/>
        <polyline fill="#ff7313" fill-opacity="0.6" class="id_n26 id_n47"
                  points="-116.390236,498.836639 -108.653381,524.529846 -132.302689,520.442078"
                  stroke="none"/>
        <polyline fill="#ff7313" fill-opacity="0.6" class="id_n27 id_n63"
                  points="74.360481,-48.816231 76.077980,-22.038439 53.968746,-31.375563"
                  stroke="none"/>
        <polyline fill="#ff7313" fill-opacity="0.6" class="id_n28 id_n51"
                  points="-291.224976,-450.404419 -296.228699,-476.766541 -273.137512,-470.224670"
                  stroke="none"/>
        <polyline fill="#ff7313" fill-opacity="0.6" class="id_n29 id_n51"
                  points="-303.492340,-448.063507 -327.607422,-459.830597 -308.547729,-474.415802"
                  stroke="none"/>
        <polyline fill="#ff7313" fill-opacity="0.6" class="id_n30 id_n63"
                  points="90.185928,-81.087700 91.489693,-107.888817 112.409081,-96.125359"
                  stroke="none"/>
        <polyline fill="#ff7313" fill-opacity="0.6" class="id_n31 id_n63"
                  points="99.362411,-65.216232 123.482468,-76.973053 123.239899,-52.974277"
                  stroke="none"/>
        <polyline fill="#ff7313" fill-opacity="0.6" class="id_n32 id_n47"
                  points="-127.699448,482.462860 -153.539169,489.695313 -148.989243,466.130554"
                  stroke="none"/>
        <polyline fill="#ff7313" fill-opacity="0.6" class="id_n33 id_n63"
                  points="63.971596,-70.037964 37.689423,-64.629883 43.875832,-87.818848"
                  stroke="none"/>
        <polyline fill="#ff7313" fill-opacity="0.6" class="id_n34 id_n47"
                  points="-121.027939,497.148010 -122.732315,523.926636 -143.473465,511.851685"
                  stroke="none"/>
        <polyline fill="#ff7313" fill-opacity="0.6" class="id_n35 id_n63"
                  points="88.194901,-48.744942 108.405815,-31.095037 86.201530,-21.986269"
                  stroke="none"/>
        <polyline fill="#ff7313" fill-opacity="0.6" class="id_n36 id_n63"
                  points="67.191017,-54.301052 55.692677,-30.056709 40.896542,-48.953117"
                  stroke="none"/>
        <polyline fill="#ff7313" fill-opacity="0.6" class="id_n37 id_n63"
                  points="83.277054,-47.500175 97.760681,-24.912024 73.896713,-22.360384"
                  stroke="none"/>
        <polyline fill="#ff7313" fill-opacity="0.6" class="id_n38 id_n63"
                  points="88.005173,-48.668365 108.014160,-30.789871 85.707764,-21.934082"
                  stroke="none"/>
        <polyline fill="#ff7313" fill-opacity="0.6" class="id_n39 id_n31"
                  points="397.000061,-270.372803 402.029480,-296.730072 421.103516,-282.163605"
                  stroke="none"/>
        <polyline fill="#ff7313" fill-opacity="0.6" class="id_n40 id_n47"
                  points="-127.122879,480.369232 -153.772491,483.499481 -145.616852,460.927704"
                  stroke="none"/>
        <polyline fill="#ff7313" fill-opacity="0.6" class="id_n41 id_n63"
                  points="63.681335,-62.029598 42.351051,-45.750195 37.859642,-69.326187"
                  stroke="none"/>
        <polyline fill="#ff7313" fill-opacity="0.6" class="id_n42 id_n47"
                  points="-126.291542,491.702148 -141.750504,513.634338 -153.112656,492.494324"
                  stroke="none"/>
        <polyline fill="#ff7313" fill-opacity="0.6" class="id_n43 id_n63"
                  points="99.028603,-61.943020 124.885727,-69.113022 120.278885,-45.559319"
                  stroke="none"/>
        <polyline fill="#ff7313" fill-opacity="0.6" class="id_n44 id_n63"
                  points="92.933601,-51.609436 117.553108,-40.937988 99.168144,-25.510962"
                  stroke="none"/>
        <polyline fill="#ff7313" fill-opacity="0.6" class="id_n45 id_n63"
                  points="96.903656,-56.315308 123.679329,-54.565063 111.568871,-33.844627"
                  stroke="none"/>
        <polyline fill="#ff7313" fill-opacity="0.6" class="id_n46 id_n63"
                  points="71.737831,-80.608345 48.763714,-94.471596 69.043961,-107.305595"
                  stroke="none"/>
        <polyline fill="#ff7313" fill-opacity="0.6" class="id_n47 id_n63"
                  points="66.812523,-54.802212 54.475407,-30.973747 40.347485,-50.374825"
                  stroke="none"/>
        <polyline fill="#ff7313" fill-opacity="0.6" class="id_n48 id_n47"
                  points="-112.324112,498.937073 -97.497978,521.301941 -121.320305,524.216858"
                  stroke="none"/>
        <polyline fill="#ff7313" fill-opacity="0.6" class="id_n49 id_n63"
                  points="97.779228,-72.781792 114.744675,-93.570587 124.589523,-71.682709"
                  stroke="none"/>
        <polyline fill="#ff7313" fill-opacity="0.6" class="id_n50 id_n47"
                  points="-126.638329,491.011688 -143.289093,512.053345 -153.462128,490.316040"
                  stroke="none"/>
        <polyline fill="#ff7313" fill-opacity="0.6" class="id_n51 id_n63"
                  points="77.858559,-83.053650 61.415192,-104.257797 84.955856,-108.930832"
                  stroke="none"/>
        <polyline fill="#ff7313" fill-opacity="0.6" class="id_n52 id_n63"
                  points="65.874184,-74.568016 39.108746,-76.468407 51.335232,-97.120598"
                  stroke="none"/>
        <polyline fill="#ff7313" fill-opacity="0.6" class="id_n53 id_n63"
                  points="96.828201,-56.187416 123.588524,-54.216347 111.307533,-33.596519"
                  stroke="none"/>
        <polyline fill="#ff7313" fill-opacity="0.6" class="id_n54 id_n63"
                  points="77.963280,-47.722191 85.213860,-21.887543 61.645912,-26.420937"
                  stroke="none"/>
        <polyline fill="#ff7313" fill-opacity="0.6" class="id_n55 id_n31"
                  points="400.843201,-265.578400 417.596863,-286.538208 427.663269,-264.751343"
                  stroke="none"/>
        <polyline fill="#ff7313" fill-opacity="0.6" class="id_n56 id_n47"
                  points="-100.179451,486.756683 -74.926186,477.686249 -77.771141,501.517059"
                  stroke="none"/>
        <polyline fill="#ff7313" fill-opacity="0.6" class="id_n57 id_n63"
                  points="63.430553,-66.952385 38.484035,-57.069515 40.556347,-80.979881"
                  stroke="none"/>
        <polyline fill="#ff7313" fill-opacity="0.6" class="id_n58 id_n47"
                  points="-105.411530,496.066040 -81.152695,507.533752 -100.030426,522.353699"
                  stroke="none"/>
        <polyline fill="#ff7313" fill-opacity="0.6" class="id_n59 id_n63"
                  points="80.195137,-83.360207 66.662842,-106.530815 90.612244,-108.088402"
                  stroke="none"/>
        <polyline fill="#ff7313" fill-opacity="0.6" class="id_n60 id_n63"
                  points="99.232834,-67.561676 121.616493,-82.359367 124.501183,-58.533363"
                  stroke="none"/>
        <polyline fill="#ff7313" fill-opacity="0.6" class="id_n61 id_n63"
                  points="93.063568,-79.076759 99.544823,-105.115067 117.782967,-89.514740"
                  stroke="none"/>
        <polyline fill="#ff7313" fill-opacity="0.6" class="id_n62 id_n63"
                  points="75.002975,-82.236977 55.296619,-100.448502 77.748383,-108.928970"
                  stroke="none"/>
    </g>
    <g id="nodes">
        <circle fill-opacity="1.0" fill="#8ac8ff" r="11.04" cx="-301.61777"
                class="id_n0" cy="539.21545" stroke="#608cb2"
                stroke-opacity="1.0" stroke-width="1.92"/>
        <circle fill-opacity="1.0" fill="#8ac8ff" r="11.04" cx="-4.1976705"
                class="id_n1" cy="644.9914" stroke="#608cb2"
                stroke-opacity="1.0" stroke-width="1.92"/>
        <circle fill-opacity="1.0" fill="#8ac8ff" r="11.04" cx="344.4755"
                class="id_n2" cy="-58.93006" stroke="#608cb2"
                stroke-opacity="1.0" stroke-width="1.92"/>
        <circle fill-opacity="1.0" fill="#8ac8ff" r="11.04" cx="132.74129"
                class="id_n3" cy="-324.58395" stroke="#608cb2"
                stroke-opacity="1.0" stroke-width="1.92"/>
        <circle fill-opacity="1.0" fill="#8ac8ff" r="11.04" cx="-332.5512"
                class="id_n4" cy="-390.09564" stroke="#608cb2"
                stroke-opacity="1.0" stroke-width="1.92"/>
        <circle fill-opacity="1.0" fill="#8ac8ff" r="11.04" cx="-345.3405"
                class="id_n5" cy="-508.77072" stroke="#608cb2"
                stroke-opacity="1.0" stroke-width="1.92"/>
        <circle fill-opacity="1.0" fill="#8ac8ff" r="11.04" cx="50.914455"
                class="id_n6" cy="46.165413" stroke="#608cb2"
                stroke-opacity="1.0" stroke-width="1.92"/>
        <circle fill-opacity="1.0" fill="#8ac8ff" r="11.04" cx="458.6754"
                class="id_n7" cy="-285.29657" stroke="#608cb2"
                stroke-opacity="1.0" stroke-width="1.92"/>
        <circle fill-opacity="1.0" fill="#8ac8ff" r="11.04" cx="-122.5469"
                class="id_n8" cy="685.9607" stroke="#608cb2"
                stroke-opacity="1.0" stroke-width="1.92"/>
        <circle fill-opacity="1.0" fill="#8ac8ff" r="11.04" cx="-237.18373"
                class="id_n9" cy="644.8443" stroke="#608cb2"
                stroke-opacity="1.0" stroke-width="1.92"/>
        <circle fill-opacity="1.0" fill="#8ac8ff" r="11.04" cx="-0.2688591"
                class="id_n11" cy="19.747759" stroke="#608cb2"
                stroke-opacity="1.0" stroke-width="1.92"/>
        <circle fill-opacity="1.0" fill="#8ac8ff" r="11.04" cx="-250.08923"
                class="id_n12" cy="-477.04453" stroke="#608cb2"
                stroke-opacity="1.0" stroke-width="1.92"/>
        <circle fill-opacity="1.0" fill="#8ac8ff" r="11.04" cx="-318.95285"
                class="id_n13" cy="-491.81262" stroke="#608cb2"
                stroke-opacity="1.0" stroke-width="1.92"/>
        <circle fill-opacity="1.0" fill="#8ac8ff" r="11.04" cx="61.684"
                class="id_n14" cy="-164.7218" stroke="#608cb2"
                stroke-opacity="1.0" stroke-width="1.92"/>
        <circle fill-opacity="1.0" fill="#8ac8ff" r="11.04" cx="124.61705"
                class="id_n15" cy="-156.95555" stroke="#608cb2"
                stroke-opacity="1.0" stroke-width="1.92"/>
        <circle fill-opacity="1.0" fill="#8ac8ff" r="11.04" cx="357.50967"
                class="id_n16" cy="116.53398" stroke="#608cb2"
                stroke-opacity="1.0" stroke-width="1.92"/>
        <circle fill-opacity="1.0" fill="#8ac8ff" r="11.04" cx="-272.4401"
                class="id_n17" cy="-504.2835" stroke="#608cb2"
                stroke-opacity="1.0" stroke-width="1.92"/>
        <circle fill-opacity="1.0" fill="#8ac8ff" r="11.04" cx="-152.9424"
                class="id_n18" cy="442.99124" stroke="#608cb2"
                stroke-opacity="1.0" stroke-width="1.92"/>
        <circle fill-opacity="1.0" fill="#8ac8ff" r="11.04" cx="-11.22667"
                class="id_n19" cy="-97.60125" stroke="#608cb2"
                stroke-opacity="1.0" stroke-width="1.92"/>
        <circle fill-opacity="1.0" fill="#8ac8ff" r="11.04" cx="-379.50275"
                class="id_n20" cy="-439.29984" stroke="#608cb2"
                stroke-opacity="1.0" stroke-width="1.92"/>
        <circle fill-opacity="1.0" fill="#8ac8ff" r="11.04" cx="-361.18094"
                class="id_n21" cy="-410.30182" stroke="#608cb2"
                stroke-opacity="1.0" stroke-width="1.92"/>
        <circle fill-opacity="1.0" fill="#8ac8ff" r="11.04" cx="87.1047"
                class="id_n22" cy="-69.94933" stroke="#608cb2"
                stroke-opacity="1.0" stroke-width="1.92"/>
        <circle fill-opacity="1.0" fill="#8ac8ff" r="11.04" cx="449.77243"
                class="id_n23" cy="-256.34802" stroke="#608cb2"
                stroke-opacity="1.0" stroke-width="1.92"/>
        <circle fill-opacity="1.0" fill="#8ac8ff" r="11.04" cx="336.89203"
                class="id_n24" cy="142.2833" stroke="#608cb2"
                stroke-opacity="1.0" stroke-width="1.92"/>
        <circle fill-opacity="1.0" fill="#8ac8ff" r="11.04" cx="-351.45752"
                class="id_n25" cy="-456.59653" stroke="#608cb2"
                stroke-opacity="1.0" stroke-width="1.92"/>
        <circle fill-opacity="1.0" fill="#8ac8ff" r="11.04" cx="-109.67913"
                class="id_n26" cy="543.6223" stroke="#608cb2"
                stroke-opacity="1.0" stroke-width="1.92"/>
        <circle fill-opacity="1.0" fill="#8ac8ff" r="11.04" cx="79.601364"
                class="id_n27" cy="31.872398" stroke="#608cb2"
                stroke-opacity="1.0" stroke-width="1.92"/>
        <circle fill-opacity="1.0" fill="#8ac8ff" r="11.04" cx="-302.72943"
                class="id_n28" cy="-520.38025" stroke="#608cb2"
                stroke-opacity="1.0" stroke-width="1.92"/>
        <circle fill-opacity="1.0" fill="#8ac8ff" r="11.04" cx="-370.48422"
                class="id_n29" cy="-481.8594" stroke="#608cb2"
                stroke-opacity="1.0" stroke-width="1.92"/>
        <circle fill-opacity="1.0" fill="#8ac8ff" r="11.04" cx="93.431244"
                class="id_n30" cy="-166.53627" stroke="#608cb2"
                stroke-opacity="1.0" stroke-width="1.92"/>
        <circle fill-opacity="1.0" fill="#8ac8ff" r="11.752258" cx="389.24695"
                class="id_n31" cy="-260.2205" stroke="#608cb2"
                stroke-opacity="1.0" stroke-width="2.043871"/>
        <circle fill-opacity="1.0" fill="#8ac8ff" r="11.218064" cx="-246.02512"
                class="id_n32" cy="524.0114" stroke="#608cb2"
                stroke-opacity="1.0" stroke-width="1.9509677"/>
        <circle fill-opacity="1.0" fill="#8ac8ff" r="11.04" cx="-15.881715"
                class="id_n33" cy="-53.408337" stroke="#608cb2"
                stroke-opacity="1.0" stroke-width="1.92"/>
        <circle fill-opacity="1.0" fill="#8ac8ff" r="11.218064" cx="-120.31819"
                class="id_n34" cy="627.3288" stroke="#608cb2"
                stroke-opacity="1.0" stroke-width="1.9509677"/>
        <circle fill-opacity="1.0" fill="#8ac8ff" r="11.396129" cx="292.01663"
                class="id_n35" cy="89.6486" stroke="#608cb2"
                stroke-opacity="1.0" stroke-width="1.9819354"/>
        <circle fill-opacity="1.0" fill="#8ac8ff" r="11.04" cx="32.25547"
                class="id_n36" cy="20.068203" stroke="#608cb2"
                stroke-opacity="1.0" stroke-width="1.92"/>
        <circle fill-opacity="1.0" fill="#8ac8ff" r="11.04" cx="128.95387"
                class="id_n37" cy="22.653564" stroke="#608cb2"
                stroke-opacity="1.0" stroke-width="1.92"/>
        <circle fill-opacity="1.0" fill="#8ac8ff" r="11.04" cx="157.0348"
                class="id_n38" cy="10.47893" stroke="#608cb2"
                stroke-opacity="1.0" stroke-width="1.92"/>
        <circle fill-opacity="1.0" fill="#8ac8ff" r="11.04" cx="411.79965"
                class="id_n39" cy="-316.2554" stroke="#608cb2"
                stroke-opacity="1.0" stroke-width="1.92"/>
        <circle fill-opacity="1.0" fill="#8ac8ff" r="11.04" cx="-175.53694"
                class="id_n40" cy="480.1164" stroke="#608cb2"
                stroke-opacity="1.0" stroke-width="1.92"/>
        <circle fill-opacity="1.0" fill="#8ac8ff" r="11.04" cx="-1.1155003"
                class="id_n41" cy="-12.306987" stroke="#608cb2"
                stroke-opacity="1.0" stroke-width="1.92"/>
        <circle fill-opacity="1.0" fill="#8ac8ff" r="11.04" cx="-157.5159"
                class="id_n42" cy="524.8156" stroke="#608cb2"
                stroke-opacity="1.0" stroke-width="1.92"/>
        <circle fill-opacity="1.0" fill="#8ac8ff" r="11.04" cx="179.58958"
                class="id_n43" cy="-84.89846" stroke="#608cb2"
                stroke-opacity="1.0" stroke-width="1.92"/>
        <circle fill-opacity="1.0" fill="#8ac8ff" r="11.04" cx="170.89609"
                class="id_n44" cy="-18.63783" stroke="#608cb2"
                stroke-opacity="1.0" stroke-width="1.92"/>
        <circle fill-opacity="1.0" fill="#8ac8ff" r="11.218064" cx="272.05127"
                class="id_n45" cy="-61.97687" stroke="#608cb2"
                stroke-opacity="1.0" stroke-width="1.9509677"/>
        <circle fill-opacity="1.0" fill="#8ac8ff" r="11.04" cx="-15.74324"
                class="id_n46" cy="-129.24907" stroke="#608cb2"
                stroke-opacity="1.0" stroke-width="1.92"/>
        <circle fill-opacity="1.0" fill="#8ac8ff" r="12.820645" cx="-114.01668"
                class="id_n47" cy="485.10477" stroke="#608cb2"
                stroke-opacity="1.0" stroke-width="2.2296774"/>
        <circle fill-opacity="1.0" fill="#8ac8ff" r="11.218064" cx="-36.810574"
                class="id_n48" cy="598.34265" stroke="#608cb2"
                stroke-opacity="1.0" stroke-width="1.9509677"/>
        <circle fill-opacity="1.0" fill="#8ac8ff" r="11.04" cx="152.26056"
                class="id_n49" cy="-141.639" stroke="#608cb2"
                stroke-opacity="1.0" stroke-width="1.92"/>
        <circle fill-opacity="1.0" fill="#8ac8ff" r="11.218064" cx="-200.34697"
                class="id_n50" cy="598.7208" stroke="#608cb2"
                stroke-opacity="1.0" stroke-width="1.9509677"/>
        <circle fill-opacity="1.0" fill="#8ac8ff" r="12.820645" cx="-295.0235"
                class="id_n51" cy="-436.9966" stroke="#608cb2"
                stroke-opacity="1.0" stroke-width="2.2296774"/>
        <circle fill-opacity="1.0" fill="#8ac8ff" r="11.04" cx="-37.437977"
                class="id_n52" cy="-77.751144" stroke="#608cb2"
                stroke-opacity="1.0" stroke-width="1.92"/>
        <circle fill-opacity="1.0" fill="#8ac8ff" r="11.04" cx="180.16801"
                class="id_n53" cy="-50.60069" stroke="#608cb2"
                stroke-opacity="1.0" stroke-width="1.92"/>
        <circle fill-opacity="1.0" fill="#8ac8ff" r="11.04" cx="107.595276"
                class="id_n54" cy="45.9517" stroke="#608cb2"
                stroke-opacity="1.0" stroke-width="1.92"/>
        <circle fill-opacity="1.0" fill="#8ac8ff" r="11.04" cx="441.62042"
                class="id_n55" cy="-310.86752" stroke="#608cb2"
                stroke-opacity="1.0" stroke-width="1.92"/>
        <circle fill-opacity="1.0" fill="#8ac8ff" r="11.04" cx="-57.0576"
                class="id_n56" cy="478.43607" stroke="#608cb2"
                stroke-opacity="1.0" stroke-width="1.92"/>
        <circle fill-opacity="1.0" fill="#8ac8ff" r="11.04" cx="-31.747946"
                class="id_n57" cy="-24.635782" stroke="#608cb2"
                stroke-opacity="1.0" stroke-width="1.92"/>
        <circle fill-opacity="1.0" fill="#8ac8ff" r="11.04" cx="-65.098885"
                class="id_n58" cy="521.77277" stroke="#608cb2"
                stroke-opacity="1.0" stroke-width="1.92"/>
        <circle fill-opacity="1.0" fill="#8ac8ff" r="11.04" cx="29.766148"
                class="id_n59" cy="-164.347" stroke="#608cb2"
                stroke-opacity="1.0" stroke-width="1.92"/>
        <circle fill-opacity="1.0" fill="#8ac8ff" r="11.04" cx="170.86691"
                class="id_n60" cy="-116.2499" stroke="#608cb2"
                stroke-opacity="1.0" stroke-width="1.92"/>
        <circle fill-opacity="1.0" fill="#8ac8ff" r="11.218064" cx="118.739914"
                class="id_n61" cy="-254.28891" stroke="#608cb2"
                stroke-opacity="1.0" stroke-width="1.9509677"/>
        <circle fill-opacity="1.0" fill="#8ac8ff" r="11.04" cx="15.406206"
                class="id_n62" cy="-137.17516" stroke="#608cb2"
                stroke-opacity="1.0" stroke-width="1.92"/>
        <circle fill-opacity="1.0" fill="#000075" r="16.56" cx="81.36333"
                class="id_n63" cy="-65.398155" stroke="#000051"
                stroke-opacity="1.0" stroke-width="2.8799999"/>
    </g>
</svg>