<?xml version="1.0" encoding="UTF-8"?>
<!DOCTYPE svg PUBLIC "-//W3C//DTD SVG 1.1//EN"
    "http://www.w3.org/Graphics/SVG/1.1/DTD/svg11.dtd" >
<svg contentScriptType="text/ecmascript" width="1573.4274"
     xmlns:xlink="http://www.w3.org/1999/xlink" zoomAndPan="magnify"
     contentStyleType="text/css"
     viewBox="-605.000000 -667.000000 1573.427368 1310.000000" height="1310.0"
     preserveAspectRatio="xMidYMid meet" xmlns="http://www.w3.org/2000/svg"
     version="1.1">
    <g id="edges">
        <path fill="none" stroke-width="3.0"
              d="M 943.570251,-487.649658 C 968.427368,-512.506775 968.427368,-462.792511 943.570251,-487.649658"
              class="id_n0" stroke-opacity="0.6" stroke="#ff730d"/>
        <path stroke-linecap="round" fill="none" class="id_n1 id_n56"
              d="M -185.650833,-592.653259 A 41.268735,41.268735 0,0 1,-185.219360,-589.340698"
              stroke="#ff730d" stroke-width="3.0" stroke-opacity="0.6"/>
        <path stroke-linecap="round" fill="none" class="id_n3 id_n60"
              d="M -154.767075,273.288055 A 46.882720,46.882720 0,0 1,-144.659500,277.279694"
              stroke="#ff730d" stroke-width="3.0" stroke-opacity="0.6"/>
        <path stroke-linecap="round" fill="none" class="id_n4 id_n18"
              d="M -534.046143,-657.022583 A 51.748340,51.748340 0,0 1,-517.310181,-655.150696"
              stroke="#ff730d" stroke-width="3.0" stroke-opacity="0.6"/>
        <path stroke-linecap="round" fill="none" class="id_n5 id_n58"
              d="M -405.712585,-594.631226 A 89.895525,89.895525 0,0 1,-344.719910,-573.155701"
              stroke="#ff730d" stroke-width="3.0" stroke-opacity="0.6"/>
        <path stroke-linecap="round" fill="none" class="id_n6 id_n22"
              d="M 199.814758,615.262939 A 43.082588,43.082588 0,0 1,194.390808,613.230530"
              stroke="#ff730d" stroke-width="3.0" stroke-opacity="0.6"/>
        <path stroke-linecap="round" fill="none" class="id_n7 id_n62"
              d="M 138.124268,387.958771 A 46.446150,46.446150 0,0 1,128.184952,390.614502"
              stroke="#ff730d" stroke-width="3.0" stroke-opacity="0.6"/>
        <path stroke-linecap="round" fill="none" class="id_n8 id_n33"
              d="M 469.874817,-5.603055 A 43.934649,43.934649 0,0 1,463.109039,-7.134810"
              stroke="#ff730d" stroke-width="3.0" stroke-opacity="0.6"/>
        <path stroke-linecap="round" fill="none" class="id_n9 id_n57"
              d="M 449.584503,-93.572449 A 82.955236,82.955236 0,0 1,398.086395,-72.564575"
              stroke="#ff730d" stroke-width="3.0" stroke-opacity="0.6"/>
        <path stroke-linecap="round" fill="none" class="id_n10 id_n37"
              d="M -230.660233,-282.440430 A 51.647655,51.647655 0,0 1,-216.900665,-291.046021"
              stroke="#ff730d" stroke-width="3.0" stroke-opacity="0.6"/>
        <path stroke-linecap="round" fill="none" class="id_n11 id_n61"
              d="M 174.443634,-9.664052 A 59.320695,59.320695 0,0 1,152.185532,-5.595680"
              stroke="#ff730d" stroke-width="3.0" stroke-opacity="0.6"/>
        <path stroke-linecap="round" fill="none" class="id_n12 id_n51"
              d="M 238.506866,73.379227 A 44.859204,44.859204 0,0 1,230.704926,70.939598"
              stroke="#ff730d" stroke-width="3.0" stroke-opacity="0.6"/>
        <path stroke-linecap="round" fill="none" class="id_n13 id_n59"
              d="M 9.442477,-423.153656 A 118.930774,118.930774 0,0 1,-30.757877,-332.891815"
              stroke="#ff730d" stroke-width="3.0" stroke-opacity="0.6"/>
        <path stroke-linecap="round" fill="none" class="id_n14 id_n55"
              d="M -262.447632,388.914490 A 50.717263,50.717263 0,0 1,-248.636230,394.788971"
              stroke="#ff730d" stroke-width="3.0" stroke-opacity="0.6"/>
        <path stroke-linecap="round" fill="none" class="id_n15 id_n63"
              d="M -27.697496,314.198730 A 64.385170,64.385170 0,0 1,-18.337435,340.420258"
              stroke="#ff730d" stroke-width="3.0" stroke-opacity="0.6"/>
        <path stroke-linecap="round" fill="none" class="id_n16 id_n5"
              d="M -448.797119,-568.082458 A 41.303433,41.303433 0,0 1,-447.628204,-570.747131"
              stroke="#ff730d" stroke-width="3.0" stroke-opacity="0.6"/>
        <path stroke-linecap="round" fill="none" class="id_n17 id_n61"
              d="M 60.346184,-58.290035 A 63.287485,63.287485 0,0 1,86.929352,-50.312134"
              stroke="#ff730d" stroke-width="3.0" stroke-opacity="0.6"/>
        <path stroke-linecap="round" fill="none" class="id_n18 id_n5"
              d="M -475.547516,-633.875122 A 66.892653,66.892653 0,0 1,-441.724976,-621.958313"
              stroke="#ff730d" stroke-width="3.0" stroke-opacity="0.6"/>
        <path stroke-linecap="round" fill="none" class="id_n19 id_n61"
              d="M 48.435654,-14.718545 A 63.182987,63.182987 0,0 1,73.786560,-25.681833"
              stroke="#ff730d" stroke-width="3.0" stroke-opacity="0.6"/>
        <path stroke-linecap="round" fill="none" class="id_n20 id_n23"
              d="M 97.893036,567.309753 A 43.801881,43.801881 0,0 1,94.912415,561.772644"
              stroke="#ff730d" stroke-width="3.0" stroke-opacity="0.6"/>
        <path stroke-linecap="round" fill="none" class="id_n21 id_n63"
              d="M 23.532843,337.489532 A 64.124308,64.124308 0,0 1,9.860438,361.356476"
              stroke="#ff730d" stroke-width="3.0" stroke-opacity="0.6"/>
        <path stroke-linecap="round" fill="none" class="id_n22 id_n23"
              d="M 158.335617,584.184753 A 80.587791,80.587791 0,0 1,112.387863,557.608643"
              stroke="#ff730d" stroke-width="3.0" stroke-opacity="0.6"/>
        <path stroke-linecap="round" fill="none" class="id_n23 id_n63"
              d="M 82.945953,521.589600 A 157.081928,157.081928 0,0 1,-18.764297,422.709076"
              stroke="#ff730d" stroke-width="3.0" stroke-opacity="0.6"/>
        <path stroke-linecap="round" fill="none" class="id_n24 id_n37"
              d="M -199.919373,-251.561661 A 46.265327,46.265327 0,0 1,-199.482605,-260.669556"
              stroke="#ff730d" stroke-width="3.0" stroke-opacity="0.6"/>
        <path stroke-linecap="round" fill="none" class="id_n25 id_n61"
              d="M 71.426712,26.320875 A 60.776714,60.776714 0,0 1,81.040382,3.770528"
              stroke="#ff730d" stroke-width="3.0" stroke-opacity="0.6"/>
        <path stroke-linecap="round" fill="none" class="id_n26 id_n37"
              d="M -211.761703,-323.313385 A 45.646977,45.646977 0,0 1,-203.966415,-320.484558"
              stroke="#ff730d" stroke-width="3.0" stroke-opacity="0.6"/>
        <path stroke-linecap="round" fill="none" class="id_n27 id_n61"
              d="M 158.569473,-112.594620 A 94.096676,94.096676 0,0 1,143.506531,-48.151409"
              stroke="#ff730d" stroke-width="3.0" stroke-opacity="0.6"/>
        <path stroke-linecap="round" fill="none" class="id_n28 id_n55"
              d="M -284.976929,425.424713 A 57.252214,57.252214 0,0 1,-262.851624,417.460876"
              stroke="#ff730d" stroke-width="3.0" stroke-opacity="0.6"/>
        <path stroke-linecap="round" fill="none" class="id_n29 id_n63"
              d="M 28.067041,415.017731 A 61.990793,61.990793 0,0 1,3.817228,410.075867"
              stroke="#ff730d" stroke-width="3.0" stroke-opacity="0.6"/>
        <path stroke-linecap="round" fill="none" class="id_n30 id_n55"
              d="M -261.697205,460.048279 A 50.123709,50.123709 0,0 1,-256.099396,446.967163"
              stroke="#ff730d" stroke-width="3.0" stroke-opacity="0.6"/>
        <path stroke-linecap="round" fill="none" class="id_n31 id_n63"
              d="M -96.475632,556.288696 A 165.721454,165.721454 0,0 1,-58.669102,409.088165"
              stroke="#ff730d" stroke-width="3.0" stroke-opacity="0.6"/>
        <path stroke-linecap="round" fill="none" class="id_n32 id_n9"
              d="M 501.739288,-106.935555 A 44.866195,44.866195 0,0 1,494.633301,-102.876068"
              stroke="#ff730d" stroke-width="3.0" stroke-opacity="0.6"/>
        <path stroke-linecap="round" fill="none" class="id_n33 id_n57"
              d="M 423.515106,-31.551380 A 73.821033,73.821033 0,0 1,382.819458,-48.756416"
              stroke="#ff730d" stroke-width="3.0" stroke-opacity="0.6"/>
        <path stroke-linecap="round" fill="none" class="id_n34 id_n13"
              d="M 0.142432,-481.505707 A 46.618110,46.618110 0,0 1,5.527183,-473.571930"
              stroke="#ff730d" stroke-width="3.0" stroke-opacity="0.6"/>
        <path stroke-linecap="round" fill="none" class="id_n35 id_n61"
              d="M 120.419533,40.964142 A 59.372455,59.372455 0,0 1,110.481888,20.561611"
              stroke="#ff730d" stroke-width="3.0" stroke-opacity="0.6"/>
        <path stroke-linecap="round" fill="none" class="id_n36 id_n27"
              d="M 179.373917,-161.559921 A 44.649103,44.649103 0,0 1,178.248550,-153.746872"
              stroke="#ff730d" stroke-width="3.0" stroke-opacity="0.6"/>
        <path stroke-linecap="round" fill="none" class="id_n37 id_n59"
              d="M -169.910339,-301.286377 A 98.989375,98.989375 0,0 1,-98.889114,-323.091705"
              stroke="#ff730d" stroke-width="3.0" stroke-opacity="0.6"/>
        <path stroke-linecap="round" fill="none" class="id_n38 id_n31"
              d="M -76.448006,615.457458 A 49.376203,49.376203 0,0 1,-85.280815,605.589417"
              stroke="#ff730d" stroke-width="3.0" stroke-opacity="0.6"/>
        <path stroke-linecap="round" fill="none" class="id_n39 id_n63"
              d="M -86.563942,357.137421 A 61.939555,61.939555 0,0 1,-61.904423,358.187439"
              stroke="#ff730d" stroke-width="3.0" stroke-opacity="0.6"/>
        <path stroke-linecap="round" fill="none" class="id_n40 id_n41"
              d="M 433.523132,-187.512344 A 43.849673,43.849673 0,0 1,431.571472,-180.974426"
              stroke="#ff730d" stroke-width="3.0" stroke-opacity="0.6"/>
        <path stroke-linecap="round" fill="none" class="id_n41 id_n57"
              d="M 405.954437,-143.077316 A 73.387537,73.387537 0,0 1,390.880707,-102.125717"
              stroke="#ff730d" stroke-width="3.0" stroke-opacity="0.6"/>
        <path stroke-linecap="round" fill="none" class="id_n42 id_n45"
              d="M -247.873810,-477.788086 A 43.109479,43.109479 0,0 1,-243.465302,-479.885712"
              stroke="#ff730d" stroke-width="3.0" stroke-opacity="0.6"/>
        <path stroke-linecap="round" fill="none" class="id_n43 id_n61"
              d="M 165.209213,-53.300594 A 59.142034,59.142034 0,0 1,151.802719,-35.361942"
              stroke="#ff730d" stroke-width="3.0" stroke-opacity="0.6"/>
        <path stroke-linecap="round" fill="none" class="id_n44 id_n59"
              d="M -20.065586,-313.751007 A 43.890621,43.890621 0,0 1,-24.940716,-311.285706"
              stroke="#ff730d" stroke-width="3.0" stroke-opacity="0.6"/>
        <path stroke-linecap="round" fill="none" class="id_n45 id_n59"
              d="M -193.364700,-474.406525 A 182.249583,182.249583 0,0 1,-69.252541,-349.853027"
              stroke="#ff730d" stroke-width="3.0" stroke-opacity="0.6"/>
        <path stroke-linecap="round" fill="none" class="id_n46 id_n63"
              d="M -9.148654,447.118103 A 64.926304,64.926304 0,0 1,-25.140802,423.480530"
              stroke="#ff730d" stroke-width="3.0" stroke-opacity="0.6"/>
        <path stroke-linecap="round" fill="none" class="id_n47 id_n63"
              d="M -91.418350,405.288300 A 65.508306,65.508306 0,0 1,-68.639229,386.878937"
              stroke="#ff730d" stroke-width="3.0" stroke-opacity="0.6"/>
        <path stroke-linecap="round" fill="none" class="id_n48 id_n13"
              d="M 43.274467,-475.984650 A 52.205382,52.205382 0,0 1,37.384670,-460.081299"
              stroke="#ff730d" stroke-width="3.0" stroke-opacity="0.6"/>
        <path stroke-linecap="round" fill="none" class="id_n49 id_n61"
              d="M 101.092735,-81.119919 A 60.379897,60.379897 0,0 1,113.710335,-60.703896"
              stroke="#ff730d" stroke-width="3.0" stroke-opacity="0.6"/>
        <path stroke-linecap="round" fill="none" class="id_n50 id_n13"
              d="M 55.007492,-433.209137 A 47.168053,47.168053 0,0 1,45.269390,-429.791992"
              stroke="#ff730d" stroke-width="3.0" stroke-opacity="0.6"/>
        <path stroke-linecap="round" fill="none" class="id_n51 id_n61"
              d="M 193.231003,44.037113 A 93.317759,93.317759 0,0 1,134.808350,15.063735"
              stroke="#ff730d" stroke-width="3.0" stroke-opacity="0.6"/>
        <path stroke-linecap="round" fill="none" class="id_n52 id_n31"
              d="M -140.985977,582.074341 A 49.788378,49.788378 0,0 1,-129.990601,573.756653"
              stroke="#ff730d" stroke-width="3.0" stroke-opacity="0.6"/>
        <path stroke-linecap="round" fill="none" class="id_n53 id_n63"
              d="M -58.429089,441.311218 A 64.575765,64.575765 0,0 1,-54.149288,413.551544"
              stroke="#ff730d" stroke-width="3.0" stroke-opacity="0.6"/>
        <path stroke-linecap="round" fill="none" class="id_n54 id_n31"
              d="M -118.627914,619.015930 A 55.080418,55.080418 0,0 1,-115.960449,598.484619"
              stroke="#ff730d" stroke-width="3.0" stroke-opacity="0.6"/>
        <path stroke-linecap="round" fill="none" class="id_n55 id_n63"
              d="M -217.168747,414.922791 A 169.901396,169.901396 0,0 1,-67.023468,368.843689"
              stroke="#ff730d" stroke-width="3.0" stroke-opacity="0.6"/>
        <path stroke-linecap="round" fill="none" class="id_n56 id_n45"
              d="M -192.962555,-544.140747 A 65.079591,65.079591 0,0 1,-189.875656,-511.158752"
              stroke="#ff730d" stroke-width="3.0" stroke-opacity="0.6"/>
        <path stroke-linecap="round" fill="none" class="id_n57 id_n61"
              d="M 352.617401,-69.324547 A 211.931754,211.931754 0,0 1,152.850006,-7.494068"
              stroke="#ff730d" stroke-width="3.0" stroke-opacity="0.6"/>
        <path stroke-linecap="round" fill="none" class="id_n58 id_n45"
              d="M -309.974335,-545.207764 A 111.611807,111.611807 0,0 1,-226.479477,-508.977325"
              stroke="#ff730d" stroke-width="3.0" stroke-opacity="0.6"/>
        <path stroke-linecap="round" fill="none" class="id_n59 id_n61"
              d="M -50.040112,-307.281036 A 284.953780,284.953780 0,0 1,115.275711,-60.688828"
              stroke="#ff730d" stroke-width="3.0" stroke-opacity="0.6"/>
        <path stroke-linecap="round" fill="none" class="id_n60 id_n63"
              d="M -109.392723,306.773224 A 101.192979,101.192979 0,0 1,-45.669907,343.907410"
              stroke="#ff730d" stroke-width="3.0" stroke-opacity="0.6"/>
        <path stroke-linecap="round" fill="none" class="id_n61 id_n63"
              d="M 118.752922,-3.937536 A 354.648500,354.648500 0,0 1,6.487683,356.148621"
              stroke="#ff730d" stroke-width="3.0" stroke-opacity="0.6"/>
        <path stroke-linecap="round" fill="none" class="id_n62 id_n63"
              d="M 82.528503,388.327026 A 99.914305,99.914305 0,0 1,11.166533,399.089630"
              stroke="#ff730d" stroke-width="3.0" stroke-opacity="0.6"/>
        <path fill="none" stroke-width="3.0"
              d="M -26.982391,381.520935 C 9.017609,345.520935 9.017609,417.520935 -26.982391,381.520935"
              class="id_n63" stroke-opacity="0.6" stroke="#ff730d"/>
    </g>
    <g id="arrows">
        <polyline fill="#ff730d" fill-opacity="0.6" class="id_n1 id_n56"
                  points="-193.854980,-566.948120 -196.415634,-593.658508 -174.023087,-585.022888"
                  stroke="none"/>
        <polyline fill="#ff730d" fill-opacity="0.6" class="id_n2 id_n4"
                  points="-558.586426,-656.700439 -584.078369,-648.324097 -580.582642,-672.068115"
                  stroke="none"/>
        <polyline fill="#ff730d" fill-opacity="0.6" class="id_n3 id_n60"
                  points="-129.577637,295.948853 -153.994080,284.820618 -135.324921,269.738770"
                  stroke="none"/>
        <polyline fill="#ff730d" fill-opacity="0.6" class="id_n4 id_n18"
                  points="-497.981506,-640.923828 -524.423584,-645.486328 -510.196777,-664.815063"
                  stroke="none"/>
        <polyline fill="#ff730d" fill-opacity="0.6" class="id_n5 id_n58"
                  points="-329.998962,-554.200623 -354.197449,-565.795227 -335.242371,-580.516174"
                  stroke="none"/>
        <polyline fill="#ff730d" fill-opacity="0.6" class="id_n6 id_n22"
                  points="178.774094,595.006409 203.502869,605.422180 185.278748,621.038879"
                  stroke="none"/>
        <polyline fill="#ff730d" fill-opacity="0.6" class="id_n7 id_n62"
                  points="104.948135,384.610321 131.187042,378.996094 125.182861,402.232910"
                  stroke="none"/>
        <polyline fill="#ff730d" fill-opacity="0.6" class="id_n8 id_n33"
                  points="445.211304,-23.124504 471.103882,-16.083691 455.114197,1.814068"
                  stroke="none"/>
        <polyline fill="#ff730d" fill-opacity="0.6" class="id_n9 id_n57"
                  points="374.479309,-76.889420 400.248810,-84.368134 395.923981,-60.761021"
                  stroke="none"/>
        <polyline fill="#ff730d" fill-opacity="0.6" class="id_n10 id_n37"
                  points="-192.912827,-291.810059 -216.518646,-279.052094 -217.282684,-303.039948"
                  stroke="none"/>
        <polyline fill="#ff730d" fill-opacity="0.6" class="id_n11 id_n61"
                  points="129.735840,-14.081627 156.428497,-16.820526 147.942566,5.629167"
                  stroke="none"/>
        <polyline fill="#ff730d" fill-opacity="0.6" class="id_n12 id_n51"
                  points="214.198914,53.516861 239.416290,62.686584 221.993561,79.192596"
                  stroke="none"/>
        <polyline fill="#ff730d" fill-opacity="0.6" class="id_n13 id_n59"
                  points="-51.038559,-320.058502 -37.174534,-343.032166 -24.341221,-322.751465"
                  stroke="none"/>
        <polyline fill="#ff730d" fill-opacity="0.6" class="id_n14 id_n55"
                  points="-234.231995,413.985779 -258.234650,401.991089 -239.037827,387.586853"
                  stroke="none"/>
        <polyline fill="#ff730d" fill-opacity="0.6" class="id_n15 id_n63"
                  points="-23.277411,363.906372 -30.080484,337.950256 -6.594389,342.890259"
                  stroke="none"/>
        <polyline fill="#ff730d" fill-opacity="0.6" class="id_n16 id_n5"
                  points="-428.663818,-585.455994 -440.273773,-561.264954 -454.982635,-580.229309"
                  stroke="none"/>
        <polyline fill="#ff730d" fill-opacity="0.6" class="id_n17 id_n61"
                  points="102.946457,-32.438911 77.992737,-42.303577 95.865967,-58.320690"
                  stroke="none"/>
        <polyline fill="#ff730d" fill-opacity="0.6" class="id_n18 id_n5"
                  points="-426.604553,-603.320374 -451.043945,-614.398071 -432.406006,-629.518555"
                  stroke="none"/>
        <polyline fill="#ff730d" fill-opacity="0.6" class="id_n19 id_n61"
                  points="97.550995,-22.327522 72.109406,-13.799614 75.463715,-37.564053"
                  stroke="none"/>
        <polyline fill="#ff730d" fill-opacity="0.6" class="id_n20 id_n23"
                  points="95.206947,537.774475 106.911514,561.919922 82.913315,561.625366"
                  stroke="none"/>
        <polyline fill="#ff730d" fill-opacity="0.6" class="id_n21 id_n63"
                  points="-11.192608,372.879028 4.099158,350.829956 15.621714,371.882996"
                  stroke="none"/>
        <polyline fill="#ff730d" fill-opacity="0.6" class="id_n22 id_n23"
                  points="101.303032,536.321899 123.031250,552.066223 101.744476,563.151062"
                  stroke="none"/>
        <polyline fill="#ff730d" fill-opacity="0.6" class="id_n23 id_n63"
                  points="-23.460350,399.173004 -6.996255,420.361053 -30.532337,425.057098"
                  stroke="none"/>
        <polyline fill="#ff730d" fill-opacity="0.6" class="id_n24 id_n37"
                  points="-186.706390,-280.986267 -189.324249,-254.281448 -209.640961,-267.057678"
                  stroke="none"/>
        <polyline fill="#ff730d" fill-opacity="0.6" class="id_n25 id_n61"
                  points="100.528885,-10.236553 88.043922,13.514778 74.036842,-5.973724"
                  stroke="none"/>
        <polyline fill="#ff730d" fill-opacity="0.6" class="id_n26 id_n37"
                  points="-188.304077,-302.299652 -213.058868,-312.653381 -194.873962,-328.315735"
                  stroke="none"/>
        <polyline fill="#ff730d" fill-opacity="0.6" class="id_n27 id_n61"
                  points="126.172882,-31.551876 135.206757,-56.818237 151.806305,-39.484589"
                  stroke="none"/>
        <polyline fill="#ff730d" fill-opacity="0.6" class="id_n28 id_n55"
                  points="-239.297241,422.064270 -265.153320,429.238068 -260.549927,405.683685"
                  stroke="none"/>
        <polyline fill="#ff730d" fill-opacity="0.6" class="id_n29 id_n63"
                  points="-13.782555,393.758759 11.975777,401.275970 -4.341320,418.875763"
                  stroke="none"/>
        <polyline fill="#ff730d" fill-opacity="0.6" class="id_n30 id_n55"
                  points="-236.891281,432.578003 -248.904816,456.571228 -263.293976,437.363098"
                  stroke="none"/>
        <polyline fill="#ff730d" fill-opacity="0.6" class="id_n31 id_n63"
                  points="-40.562408,393.335449 -50.792744,418.141510 -66.545448,400.034821"
                  stroke="none"/>
        <polyline fill="#ff730d" fill-opacity="0.6" class="id_n32 id_n9"
                  points="470.634399,-102.644180 494.517365,-114.875511 494.749237,-90.876625"
                  stroke="none"/>
        <polyline fill="#ff730d" fill-opacity="0.6" class="id_n33 id_n57"
                  points="369.039368,-68.406052 392.644287,-55.646477 372.994629,-41.866356"
                  stroke="none"/>
        <polyline fill="#ff730d" fill-opacity="0.6" class="id_n34 id_n13"
                  points="7.489577,-449.652313 -6.432635,-472.590729 17.487001,-474.553131"
                  stroke="none"/>
        <polyline fill="#ff730d" fill-opacity="0.6" class="id_n35 id_n61"
                  points="112.615395,-3.343370 122.434380,21.628365 98.529396,19.494854"
                  stroke="none"/>
        <polyline fill="#ff730d" fill-opacity="0.6" class="id_n36 id_n27"
                  points="163.690338,-134.666550 168.708389,-161.025986 187.788712,-146.467789"
                  stroke="none"/>
        <polyline fill="#ff730d" fill-opacity="0.6" class="id_n37 id_n59"
                  points="-75.813553,-316.494843 -102.187553,-311.553925 -95.590675,-334.629486"
                  stroke="none"/>
        <polyline fill="#ff730d" fill-opacity="0.6" class="id_n38 id_n31"
                  points="-90.246582,582.108765 -73.540489,603.106506 -97.021141,608.072327"
                  stroke="none"/>
        <polyline fill="#ff730d" fill-opacity="0.6" class="id_n39 id_n63"
                  points="-41.948978,371.520874 -68.571136,368.165161 -55.237717,348.209717"
                  stroke="none"/>
        <polyline fill="#ff730d" fill-opacity="0.6" class="id_n40 id_n41"
                  points="414.416351,-164.190430 423.179474,-189.551971 439.963470,-172.396881"
                  stroke="none"/>
        <polyline fill="#ff730d" fill-opacity="0.6" class="id_n41 id_n57"
                  points="371.911743,-87.422699 383.529205,-111.610199 398.232208,-92.641235"
                  stroke="none"/>
        <polyline fill="#ff730d" fill-opacity="0.6" class="id_n42 id_n45"
                  points="-219.508148,-478.452454 -244.181946,-467.907135 -242.748657,-491.864288"
                  stroke="none"/>
        <polyline fill="#ff730d" fill-opacity="0.6" class="id_n43 id_n61"
                  points="129.578690,-26.301460 147.272476,-46.473953 156.332962,-24.249922"
                  stroke="none"/>
        <polyline fill="#ff730d" fill-opacity="0.6" class="id_n44 id_n59"
                  points="-48.923229,-312.201752 -24.482697,-323.276947 -25.398735,-299.294464"
                  stroke="none"/>
        <polyline fill="#ff730d" fill-opacity="0.6" class="id_n45 id_n59"
                  points="-65.036621,-326.226227 -81.065941,-347.745056 -57.439137,-351.960999"
                  stroke="none"/>
        <polyline fill="#ff730d" fill-opacity="0.6" class="id_n46 id_n63"
                  points="-26.193138,399.503632 -13.152342,422.954376 -37.129257,424.006683"
                  stroke="none"/>
        <polyline fill="#ff730d" fill-opacity="0.6" class="id_n47 id_n63"
                  points="-44.835320,383.817230 -67.108360,398.780884 -70.170082,374.976990"
                  stroke="none"/>
        <polyline fill="#ff730d" fill-opacity="0.6" class="id_n48 id_n13"
                  points="18.841095,-444.845276 29.766668,-469.353088 45.002670,-450.809509"
                  stroke="none"/>
        <polyline fill="#ff730d" fill-opacity="0.6" class="id_n49 id_n61"
                  points="113.940758,-36.705002 101.710892,-60.588684 125.709778,-60.819107"
                  stroke="none"/>
        <polyline fill="#ff730d" fill-opacity="0.6" class="id_n50 id_n13"
                  points="21.650593,-434.052551 47.399677,-441.601379 43.139111,-417.982605"
                  stroke="none"/>
        <polyline fill="#ff730d" fill-opacity="0.6" class="id_n51 id_n61"
                  points="122.602051,-5.600393 145.140411,8.960584 124.476288,21.166885"
                  stroke="none"/>
        <polyline fill="#ff730d" fill-opacity="0.6" class="id_n52 id_n31"
                  points="-106.177658,570.766052 -128.495300,585.663147 -131.485901,561.850159"
                  stroke="none"/>
        <polyline fill="#ff730d" fill-opacity="0.6" class="id_n53 id_n63"
                  points="-38.625347,395.248352 -44.997688,421.313507 -63.300896,405.789581"
                  stroke="none"/>
        <polyline fill="#ff730d" fill-opacity="0.6" class="id_n54 id_n31"
                  points="-101.178406,579.577148 -106.506729,605.875610 -125.414169,591.093628"
                  stroke="none"/>
        <polyline fill="#ff730d" fill-opacity="0.6" class="id_n55 id_n63"
                  points="-44.142853,376.087830 -70.645538,380.283997 -63.401402,357.403381"
                  stroke="none"/>
        <polyline fill="#ff730d" fill-opacity="0.6" class="id_n56 id_n45"
                  points="-200.412979,-489.595703 -200.657181,-516.427429 -179.094131,-505.890106"
                  stroke="none"/>
        <polyline fill="#ff730d" fill-opacity="0.6" class="id_n57 id_n61"
                  points="130.008621,-14.860966 156.533447,-18.914761 149.166565,3.926624"
                  stroke="none"/>
        <polyline fill="#ff730d" fill-opacity="0.6" class="id_n58 id_n45"
                  points="-213.455719,-488.818420 -236.558929,-502.465454 -216.400024,-515.489197"
                  stroke="none"/>
        <polyline fill="#ff730d" fill-opacity="0.6" class="id_n59 id_n61"
                  points="114.583389,-36.698814 103.280701,-61.034988 127.270721,-60.342667"
                  stroke="none"/>
        <polyline fill="#ff730d" fill-opacity="0.6" class="id_n60 id_n63"
                  points="-34.991325,365.400848 -56.416626,349.246704 -34.923187,338.568115"
                  stroke="none"/>
        <polyline fill="#ff730d" fill-opacity="0.6" class="id_n61 id_n63"
                  points="-12.638074,370.647095 -0.761549,346.585754 13.736914,365.711487"
                  stroke="none"/>
        <polyline fill="#ff730d" fill-opacity="0.6" class="id_n62 id_n63"
                  points="-10.632853,389.050385 16.186165,388.189941 6.146903,409.989319"
                  stroke="none"/>
    </g>
    <g id="nodes">
        <circle fill-opacity="1.0" fill="#0000a7" r="11.434286" cx="943.57025"
                class="id_n0" cy="-487.64966" stroke="#000074"
                stroke-opacity="1.0" stroke-width="1.9885714"/>
        <circle fill-opacity="1.0" fill="#8ac1ff" r="11.04" cx="-189.37904"
                class="id_n1" cy="-604.0594" stroke="#6087b2"
                stroke-opacity="1.0" stroke-width="1.92"/>
        <circle fill-opacity="1.0" fill="#8ac1ff" r="11.04" cx="-592.687"
                class="id_n2" cy="-654.5742" stroke="#6087b2"
                stroke-opacity="1.0" stroke-width="1.92"/>
        <circle fill-opacity="1.0" fill="#8ac1ff" r="11.04" cx="-166.66327"
                class="id_n3" cy="271.71307" stroke="#6087b2"
                stroke-opacity="1.0" stroke-width="1.92"/>
        <circle fill-opacity="1.0" fill="#8ac1ff" r="11.434286" cx="-546.2904"
                class="id_n4" cy="-654.89014" stroke="#6087b2"
                stroke-opacity="1.0" stroke-width="1.9885714"/>
        <circle fill-opacity="1.0" fill="#8ac1ff" r="11.828572" cx="-418.5043"
                class="id_n5" cy="-593.33575" stroke="#6087b2"
                stroke-opacity="1.0" stroke-width="2.057143"/>
        <circle fill-opacity="1.0" fill="#8ac1ff" r="11.04" cx="211.67728"
                class="id_n6" cy="617.0742" stroke="#6087b2"
                stroke-opacity="1.0" stroke-width="1.92"/>
        <circle fill-opacity="1.0" fill="#8ac1ff" r="11.04" cx="148.64592"
                class="id_n7" cy="382.1886" stroke="#6087b2"
                stroke-opacity="1.0" stroke-width="1.92"/>
        <circle fill-opacity="1.0" fill="#8ac1ff" r="11.04" cx="481.87454"
                class="id_n8" cy="-5.5235953" stroke="#6087b2"
                stroke-opacity="1.0" stroke-width="1.92"/>
        <circle fill-opacity="1.0" fill="#8ac1ff" r="11.434286" cx="458.20642"
                class="id_n9" cy="-102.52409" stroke="#6087b2"
                stroke-opacity="1.0" stroke-width="1.9885714"/>
        <circle fill-opacity="1.0" fill="#8ac1ff" r="11.04" cx="-238.73119"
                class="id_n10" cy="-273.56012" stroke="#6087b2"
                stroke-opacity="1.0" stroke-width="1.92"/>
        <circle fill-opacity="1.0" fill="#8ac1ff" r="11.04" cx="185.12065"
                class="id_n11" cy="-15.141398" stroke="#6087b2"
                stroke-opacity="1.0" stroke-width="1.92"/>
        <circle fill-opacity="1.0" fill="#8ac1ff" r="11.04" cx="250.47069"
                class="id_n12" cy="74.31033" stroke="#6087b2"
                stroke-opacity="1.0" stroke-width="1.92"/>
        <circle fill-opacity="1.0" fill="#8ac1ff" r="12.2228565" cx="8.575903"
                class="id_n13" cy="-436.41107" stroke="#6087b2"
                stroke-opacity="1.0" stroke-width="2.1257143"/>
        <circle fill-opacity="1.0" fill="#8ac1ff" r="11.04" cx="-274.33835"
                class="id_n14" cy="387.29868" stroke="#6087b2"
                stroke-opacity="1.0" stroke-width="1.92"/>
        <circle fill-opacity="1.0" fill="#8ac1ff" r="11.04" cx="-34.999058"
                class="id_n15" cy="304.67575" stroke="#6087b2"
                stroke-opacity="1.0" stroke-width="1.92"/>
        <circle fill-opacity="1.0" fill="#8ac1ff" r="11.04" cx="-451.5606"
                class="id_n16" cy="-556.40497" stroke="#6087b2"
                stroke-opacity="1.0" stroke-width="1.92"/>
        <circle fill-opacity="1.0" fill="#8ac1ff" r="11.04" cx="48.349773"
                class="id_n17" cy="-57.996555" stroke="#6087b2"
                stroke-opacity="1.0" stroke-width="1.92"/>
        <circle fill-opacity="1.0" fill="#8ac1ff" r="11.434286" cx="-487.97202"
                class="id_n18" cy="-633.5564" stroke="#6087b2"
                stroke-opacity="1.0" stroke-width="1.9885714"/>
        <circle fill-opacity="1.0" fill="#8ac1ff" r="11.04" cx="39.44276"
                class="id_n19" cy="-6.773238" stroke="#6087b2"
                stroke-opacity="1.0" stroke-width="1.92"/>
        <circle fill-opacity="1.0" fill="#8ac1ff" r="11.04" cx="105.65181"
                class="id_n20" cy="576.46405" stroke="#6087b2"
                stroke-opacity="1.0" stroke-width="1.92"/>
        <circle fill-opacity="1.0" fill="#8ac1ff" r="11.04" cx="26.038683"
                class="id_n21" cy="325.7541" stroke="#6087b2"
                stroke-opacity="1.0" stroke-width="1.92"/>
        <circle fill-opacity="1.0" fill="#8ac1ff" r="11.434286" cx="170.68687"
                class="id_n22" cy="585.5689" stroke="#6087b2"
                stroke-opacity="1.0" stroke-width="1.9885714"/>
        <circle fill-opacity="1.0" fill="#8ac1ff" r="11.828572" cx="95.36473"
                class="id_n23" cy="524.9183" stroke="#6087b2"
                stroke-opacity="1.0" stroke-width="2.057143"/>
        <circle fill-opacity="1.0" fill="#8ac1ff" r="11.04" cx="-197.7611"
                class="id_n24" cy="-239.75734" stroke="#6087b2"
                stroke-opacity="1.0" stroke-width="1.92"/>
        <circle fill-opacity="1.0" fill="#8ac1ff" r="11.04" cx="70.2163"
                class="id_n25" cy="38.259674" stroke="#6087b2"
                stroke-opacity="1.0" stroke-width="1.92"/>
        <circle fill-opacity="1.0" fill="#8ac1ff" r="11.04" cx="-223.66759"
                class="id_n26" cy="-324.8134" stroke="#6087b2"
                stroke-opacity="1.0" stroke-width="1.92"/>
        <circle fill-opacity="1.0" fill="#8ac1ff" r="11.434286" cx="156.15128"
                class="id_n27" cy="-124.78567" stroke="#6087b2"
                stroke-opacity="1.0" stroke-width="1.9885714"/>
        <circle fill-opacity="1.0" fill="#8ac1ff" r="11.04" cx="-294.47644"
                class="id_n28" cy="432.7568" stroke="#6087b2"
                stroke-opacity="1.0" stroke-width="1.92"/>
        <circle fill-opacity="1.0" fill="#8ac1ff" r="11.04" cx="40.010788"
                class="id_n29" cy="413.85715" stroke="#6087b2"
                stroke-opacity="1.0" stroke-width="1.92"/>
        <circle fill-opacity="1.0" fill="#8ac1ff" r="11.04" cx="-263.3948"
                class="id_n30" cy="471.92758" stroke="#6087b2"
                stroke-opacity="1.0" stroke-width="1.92"/>
        <circle fill-opacity="1.0" fill="#8ac1ff" r="12.2228565" cx="-92.99549"
                class="id_n31" cy="569.11053" stroke="#6087b2"
                stroke-opacity="1.0" stroke-width="2.1257143"/>
        <circle fill-opacity="1.0" fill="#8ac1ff" r="11.04" cx="510.56448"
                class="id_n32" cy="-115.06674" stroke="#6087b2"
                stroke-opacity="1.0" stroke-width="1.92"/>
        <circle fill-opacity="1.0" fill="#8ac1ff" r="11.434286" cx="435.9428"
                class="id_n33" cy="-31.404879" stroke="#6087b2"
                stroke-opacity="1.0" stroke-width="1.9885714"/>
        <circle fill-opacity="1.0" fill="#8ac1ff" r="11.04" cx="-8.699635"
                class="id_n34" cy="-489.61853" stroke="#6087b2"
                stroke-opacity="1.0" stroke-width="1.92"/>
        <circle fill-opacity="1.0" fill="#8ac1ff" r="11.04" cx="128.57094"
                class="id_n35" cy="49.77065" stroke="#6087b2"
                stroke-opacity="1.0" stroke-width="1.92"/>
        <circle fill-opacity="1.0" fill="#8ac1ff" r="11.04" cx="178.41199"
                class="id_n36" cy="-173.5213" stroke="#6087b2"
                stroke-opacity="1.0" stroke-width="1.92"/>
        <circle fill-opacity="1.0" fill="#8ac1ff" r="12.2228565" cx="-179.63385"
                class="id_n37" cy="-292.233" stroke="#6087b2"
                stroke-opacity="1.0" stroke-width="2.1257143"/>
        <circle fill-opacity="1.0" fill="#8ac1ff" r="11.04" cx="-66.43927"
                class="id_n38" cy="622.0775" stroke="#6087b2"
                stroke-opacity="1.0" stroke-width="1.92"/>
        <circle fill-opacity="1.0" fill="#8ac1ff" r="11.04" cx="-98.17575"
                class="id_n39" cy="360.16495" stroke="#6087b2"
                stroke-opacity="1.0" stroke-width="1.92"/>
        <circle fill-opacity="1.0" fill="#8ac1ff" r="11.04" cx="434.42172"
                class="id_n40" cy="-199.47865" stroke="#6087b2"
                stroke-opacity="1.0" stroke-width="1.92"/>
        <circle fill-opacity="1.0" fill="#8ac1ff" r="11.434286" cx="405.53247"
                class="id_n41" cy="-155.49872" stroke="#6087b2"
                stroke-opacity="1.0" stroke-width="1.9885714"/>
        <circle fill-opacity="1.0" fill="#8ac1ff" r="11.04" cx="-257.4961"
                class="id_n42" cy="-470.6179" stroke="#6087b2"
                stroke-opacity="1.0" stroke-width="1.92"/>
        <circle fill-opacity="1.0" fill="#8ac1ff" r="11.04" cx="169.32057"
                class="id_n43" cy="-64.57431" stroke="#6087b2"
                stroke-opacity="1.0" stroke-width="1.92"/>
        <circle fill-opacity="1.0" fill="#8ac1ff" r="11.04" cx="-10.641856"
                class="id_n44" cy="-321.18024" stroke="#6087b2"
                stroke-opacity="1.0" stroke-width="1.92"/>
        <circle fill-opacity="1.0" fill="#8ac1ff" r="12.2228565" cx="-206.24614"
                class="id_n45" cy="-477.65903" stroke="#6087b2"
                stroke-opacity="1.0" stroke-width="2.1257143"/>
        <circle fill-opacity="1.0" fill="#8ac1ff" r="11.04" cx="0.31767341"
                class="id_n46" cy="454.49298" stroke="#6087b2"
                stroke-opacity="1.0" stroke-width="1.92"/>
        <circle fill-opacity="1.0" fill="#8ac1ff" r="11.04" cx="-97.93354"
                class="id_n47" cy="415.3656" stroke="#6087b2"
                stroke-opacity="1.0" stroke-width="1.92"/>
        <circle fill-opacity="1.0" fill="#8ac1ff" r="11.04" cx="44.189827"
                class="id_n48" cy="-487.94968" stroke="#6087b2"
                stroke-opacity="1.0" stroke-width="1.92"/>
        <circle fill-opacity="1.0" fill="#8ac1ff" r="11.04" cx="92.05224"
                class="id_n49" cy="-89.01102" stroke="#6087b2"
                stroke-opacity="1.0" stroke-width="1.92"/>
        <circle fill-opacity="1.0" fill="#8ac1ff" r="11.04" cx="65.080086"
                class="id_n50" cy="-439.73163" stroke="#6087b2"
                stroke-opacity="1.0" stroke-width="1.92"/>
        <circle fill-opacity="1.0" fill="#8ac1ff" r="11.434286" cx="205.65115"
                class="id_n51" cy="44.494377" stroke="#6087b2"
                stroke-opacity="1.0" stroke-width="1.9885714"/>
        <circle fill-opacity="1.0" fill="#8ac1ff" r="11.04" cx="-148.37613"
                class="id_n52" cy="591.52875" stroke="#6087b2"
                stroke-opacity="1.0" stroke-width="1.92"/>
        <circle fill-opacity="1.0" fill="#8ac1ff" r="11.04" cx="-56.525448"
                class="id_n53" cy="453.15927" stroke="#6087b2"
                stroke-opacity="1.0" stroke-width="1.92"/>
        <circle fill-opacity="1.0" fill="#8ac1ff" r="11.04" cx="-116.60936"
                class="id_n54" cy="630.8449" stroke="#6087b2"
                stroke-opacity="1.0" stroke-width="1.92"/>
        <circle fill-opacity="1.0" fill="#8ac1ff" r="12.2228565" cx="-226.25821"
                class="id_n55" cy="424.61258" stroke="#6087b2"
                stroke-opacity="1.0" stroke-width="2.1257143"/>
        <circle fill-opacity="1.0" fill="#8ac1ff" r="11.434286" cx="-198.327"
                class="id_n56" cy="-555.352" stroke="#6087b2"
                stroke-opacity="1.0" stroke-width="1.9885714"/>
        <circle fill-opacity="1.0" fill="#8ac1ff" r="12.2228565" cx="361.41107"
                class="id_n57" cy="-79.28353" stroke="#6087b2"
                stroke-opacity="1.0" stroke-width="2.1257143"/>
        <circle fill-opacity="1.0" fill="#8ac1ff" r="11.434286" cx="-322.3756"
                class="id_n58" cy="-544.38464" stroke="#6087b2"
                stroke-opacity="1.0" stroke-width="1.9885714"/>
        <circle fill-opacity="1.0" fill="#8ac1ff" r="12.617143" cx="-62.62752"
                class="id_n59" cy="-312.7252" stroke="#6087b2"
                stroke-opacity="1.0" stroke-width="2.1942856"/>
        <circle fill-opacity="1.0" fill="#8ac1ff" r="11.434286" cx="-121.76738"
                class="id_n60" cy="305.61682" stroke="#6087b2"
                stroke-opacity="1.0" stroke-width="1.9885714"/>
        <circle fill-opacity="1.0" fill="#8ac1ff" r="15.377144" cx="114.101234"
                class="id_n61" cy="-19.991484" stroke="#6087b2"
                stroke-opacity="1.0" stroke-width="2.674286"/>
        <circle fill-opacity="1.0" fill="#8ac1ff" r="11.434286" cx="92.91478"
                class="id_n62" cy="381.501" stroke="#6087b2"
                stroke-opacity="1.0" stroke-width="1.9885714"/>
        <circle fill-opacity="1.0" fill="#0000a7" r="16.56" cx="-26.982391"
                class="id_n63" cy="381.52094" stroke="#000074"
                stroke-opacity="1.0" stroke-width="2.8799999"/>
    </g>
</svg>