<?xml version="1.0" encoding="UTF-8"?>
<!DOCTYPE svg PUBLIC "-//W3C//DTD SVG 1.1//EN"
    "http://www.w3.org/Graphics/SVG/1.1/DTD/svg11.dtd" >
<svg contentScriptType="text/ecmascript" width="1604.0"
     xmlns:xlink="http://www.w3.org/1999/xlink" zoomAndPan="magnify"
     contentStyleType="text/css"
     viewBox="-922.000000 -960.000000 1604.000000 1627.000000" height="1627.0"
     preserveAspectRatio="xMidYMid meet" xmlns="http://www.w3.org/2000/svg"
     version="1.1">
    <g id="edges">
        <path stroke-linecap="round" fill="none" class="id_n0 id_n32"
              d="M 665.040527,-692.184631 A 71.608878,71.608878 0,0 1,605.608765,-678.112549"
              stroke="#00ff4d" stroke-width="3.0" stroke-opacity="1.0"/>
        <path stroke-linecap="round" fill="none" class="id_n1 id_n48"
              d="M 420.868439,-940.900940 A 73.833335,73.833335 0,0 1,418.553955,-877.151733"
              stroke="#00ff4d" stroke-width="3.0" stroke-opacity="1.0"/>
        <path stroke-linecap="round" fill="none" class="id_n2 id_n45"
              d="M -247.801758,452.967102 A 88.642130,88.642130 0,0 1,-198.419479,387.733856"
              stroke="#00ff4d" stroke-width="3.0" stroke-opacity="1.0"/>
        <path stroke-linecap="round" fill="none" class="id_n3 id_n61"
              d="M 390.988007,165.029755 A 89.221576,89.221576 0,0 1,308.700867,171.231049"
              stroke="#00ff4d" stroke-width="3.0" stroke-opacity="1.0"/>
        <path stroke-linecap="round" fill="none" class="id_n4 id_n51"
              d="M -830.589844,273.808350 A 87.811117,87.811117 0,0 1,-800.335510,198.878296"
              stroke="#00ff4d" stroke-width="3.0" stroke-opacity="1.0"/>
        <path stroke-linecap="round" fill="none" class="id_n5 id_n51"
              d="M -772.961426,107.570084 A 74.681495,74.681495 0,0 1,-774.039429,172.387299"
              stroke="#00ff4d" stroke-width="3.0" stroke-opacity="1.0"/>
        <path stroke-linecap="round" fill="none" class="id_n6 id_n63"
              d="M -151.284546,110.601761 A 143.639737,143.639737 0,0 1,-8.377755,150.291489"
              stroke="#00ffa6" stroke-width="3.0" stroke-opacity="1.0"/>
        <path stroke-linecap="round" fill="none" class="id_n7 id_n31"
              d="M 483.685944,592.937988 A 91.107740,91.107740 0,0 1,408.477722,553.739563"
              stroke="#00ff4d" stroke-width="3.0" stroke-opacity="1.0"/>
        <path stroke-linecap="round" fill="none" class="id_n8 id_n34"
              d="M 240.965652,-898.775574 A 72.352896,72.352896 0,0 1,276.195374,-847.776917"
              stroke="#00ff4d" stroke-width="3.0" stroke-opacity="1.0"/>
        <path stroke-linecap="round" fill="none" class="id_n9 id_n50"
              d="M 584.946106,-861.550903 A 73.454008,73.454008 0,0 1,545.010620,-812.401917"
              stroke="#00ff4d" stroke-width="3.0" stroke-opacity="1.0"/>
        <path stroke-linecap="round" fill="none" class="id_n10 id_n47"
              d="M 354.140289,-726.018250 A 77.730691,77.730691 0,0 1,384.125549,-664.380859"
              stroke="#00ff4d" stroke-width="3.0" stroke-opacity="1.0"/>
        <path stroke-linecap="round" fill="none" class="id_n11 id_n63"
              d="M 97.868179,295.299103 A 140.756894,140.756894 0,0 1,5.346270,183.862030"
              stroke="#00ffa6" stroke-width="3.0" stroke-opacity="1.0"/>
        <path stroke-linecap="round" fill="none" class="id_n12 id_n51"
              d="M -820.794678,96.726494 A 88.722817,88.722817 0,0 1,-782.698547,169.243484"
              stroke="#00ff4d" stroke-width="3.0" stroke-opacity="1.0"/>
        <path stroke-linecap="round" fill="none" class="id_n13 id_n51"
              d="M -905.454285,207.043930 A 108.668857,108.668857 0,0 1,-802.476807,181.542786"
              stroke="#00ff4d" stroke-width="3.0" stroke-opacity="1.0"/>
        <path stroke-linecap="round" fill="none" class="id_n14 id_n63"
              d="M 142.673386,185.211853 A 123.777448,123.777448 0,0 1,18.612373,176.747406"
              stroke="#00ffa6" stroke-width="3.0" stroke-opacity="1.0"/>
        <path stroke-linecap="round" fill="none" class="id_n15 id_n63"
              d="M -65.503647,288.977051 A 125.150968,125.150968 0,0 1,-12.619169,174.603668"
              stroke="#00ffa6" stroke-width="3.0" stroke-opacity="1.0"/>
        <path stroke-linecap="round" fill="none" class="id_n16 id_n35"
              d="M -1.776310,649.857727 A 85.909039,85.909039 0,0 1,-19.888573,573.479675"
              stroke="#00ff4d" stroke-width="3.0" stroke-opacity="1.0"/>
        <path stroke-linecap="round" fill="none" class="id_n17 id_n51"
              d="M -860.998474,214.561859 A 74.153191,74.153191 0,0 1,-803.535522,185.973679"
              stroke="#00ff4d" stroke-width="3.0" stroke-opacity="1.0"/>
        <path stroke-linecap="round" fill="none" class="id_n18 id_n47"
              d="M 303.258667,-632.861023 A 73.078655,73.078655 0,0 1,363.495209,-650.866516"
              stroke="#00ff4d" stroke-width="3.0" stroke-opacity="1.0"/>
        <path stroke-linecap="round" fill="none" class="id_n19 id_n63"
              d="M 144.576538,230.300751 A 136.153038,136.153038 0,0 1,14.451520,180.619324"
              stroke="#00ffa6" stroke-width="3.0" stroke-opacity="1.0"/>
        <path stroke-linecap="round" fill="none" class="id_n20 id_n51"
              d="M -783.362000,269.060059 A 74.275542,74.275542 0,0 1,-792.612061,205.397705"
              stroke="#00ff4d" stroke-width="3.0" stroke-opacity="1.0"/>
        <path stroke-linecap="round" fill="none" class="id_n21 id_n51"
              d="M -868.765015,105.560799 A 105.010849,105.010849 0,0 1,-790.079346,169.931366"
              stroke="#00ff4d" stroke-width="3.0" stroke-opacity="1.0"/>
        <path stroke-linecap="round" fill="none" class="id_n22 id_n63"
              d="M -126.555473,150.270996 A 116.034211,116.034211 0,0 1,-11.613046,153.729477"
              stroke="#00ffa6" stroke-width="3.0" stroke-opacity="1.0"/>
        <path stroke-linecap="round" fill="none" class="id_n23 id_n31"
              d="M 410.893036,617.568604 A 74.594590,74.594590 0,0 1,393.613220,555.197876"
              stroke="#00ff4d" stroke-width="3.0" stroke-opacity="1.0"/>
        <path stroke-linecap="round" fill="none" class="id_n24 id_n35"
              d="M -46.468941,645.801697 A 86.853939,86.853939 0,0 1,-27.332294,568.490417"
              stroke="#00ff4d" stroke-width="3.0" stroke-opacity="1.0"/>
        <path stroke-linecap="round" fill="none" class="id_n25 id_n51"
              d="M -875.709534,260.540039 A 103.724908,103.724908 0,0 1,-803.391479,191.323013"
              stroke="#00ff4d" stroke-width="3.0" stroke-opacity="1.0"/>
        <path stroke-linecap="round" fill="none" class="id_n26 id_n47"
              d="M 414.029938,-573.564026 A 72.575623,72.575623 0,0 1,381.323975,-626.536682"
              stroke="#00ff4d" stroke-width="3.0" stroke-opacity="1.0"/>
        <path stroke-linecap="round" fill="none" class="id_n27 id_n63"
              d="M -113.310303,44.290565 A 146.824729,146.824729 0,0 1,-0.515621,146.411911"
              stroke="#00ffa6" stroke-width="3.0" stroke-opacity="1.0"/>
        <path stroke-linecap="round" fill="none" class="id_n28 id_n51"
              d="M -856.060425,150.007904 A 74.290222,74.290222 0,0 1,-795.889221,172.815659"
              stroke="#00ff4d" stroke-width="3.0" stroke-opacity="1.0"/>
        <path stroke-linecap="round" fill="none" class="id_n29 id_n51"
              d="M -902.941467,155.815369 A 108.964522,108.964522 0,0 1,-798.205872,174.819046"
              stroke="#00ff4d" stroke-width="3.0" stroke-opacity="1.0"/>
        <path stroke-linecap="round" fill="none" class="id_n30 id_n63"
              d="M 98.876480,33.604019 A 141.895441,141.895441 0,0 1,21.215158,157.486496"
              stroke="#00ffa6" stroke-width="3.0" stroke-opacity="1.0"/>
        <path stroke-linecap="round" fill="none" class="id_n31 id_n63"
              d="M 389.414459,535.860352 A 452.615796,452.615796 0,0 1,7.386393,183.576218"
              stroke="#00ffa6" stroke-width="3.0" stroke-opacity="1.0"/>
        <path stroke-linecap="round" fill="none" class="id_n32 id_n47"
              d="M 580.748718,-677.283569 A 174.683678,174.683678 0,0 1,399.214508,-638.093933"
              stroke="#00ff4d" stroke-width="3.0" stroke-opacity="1.0"/>
        <path stroke-linecap="round" fill="none" class="id_n33 id_n63"
              d="M -123.488235,222.123856 A 123.007452,123.007452 0,0 1,-15.165066,162.976044"
              stroke="#00ffa6" stroke-width="3.0" stroke-opacity="1.0"/>
        <path stroke-linecap="round" fill="none" class="id_n34 id_n47"
              d="M 285.835144,-824.566467 A 175.986970,175.986970 0,0 1,383.047394,-664.486694"
              stroke="#00ff4d" stroke-width="3.0" stroke-opacity="1.0"/>
        <path stroke-linecap="round" fill="none" class="id_n35 id_n63"
              d="M -18.848116,547.307617 A 325.907783,325.907783 0,0 1,-7.884954,179.963730"
              stroke="#00ffa6" stroke-width="3.0" stroke-opacity="1.0"/>
        <path stroke-linecap="round" fill="none" class="id_n36 id_n63"
              d="M -107.664673,91.254219 A 118.071399,118.071399 0,0 1,-4.800704,147.955368"
              stroke="#00ffa6" stroke-width="3.0" stroke-opacity="1.0"/>
        <path stroke-linecap="round" fill="none" class="id_n37 id_n63"
              d="M 145.273331,95.255470 A 138.223096,138.223096 0,0 1,22.671698,166.469635"
              stroke="#00ffa6" stroke-width="3.0" stroke-opacity="1.0"/>
        <path stroke-linecap="round" fill="none" class="id_n38 id_n63"
              d="M -50.504490,6.158369 A 146.569386,146.569386 0,0 1,7.793981,146.369354"
              stroke="#00ffa6" stroke-width="3.0" stroke-opacity="1.0"/>
        <path stroke-linecap="round" fill="none" class="id_n39 id_n31"
              d="M 479.245667,552.167847 A 74.599212,74.599212 0,0 1,414.632172,548.356934"
              stroke="#00ff4d" stroke-width="3.0" stroke-opacity="1.0"/>
        <path stroke-linecap="round" fill="none" class="id_n40 id_n47"
              d="M 462.422241,-610.397034 A 80.163431,80.163431 0,0 1,393.939575,-630.973755"
              stroke="#00ff4d" stroke-width="3.0" stroke-opacity="1.0"/>
        <path stroke-linecap="round" fill="none" class="id_n41 id_n63"
              d="M -100.442619,259.641571 A 124.095848,124.095848 0,0 1,-14.843401,168.914886"
              stroke="#00ffa6" stroke-width="3.0" stroke-opacity="1.0"/>
        <path stroke-linecap="round" fill="none" class="id_n42 id_n47"
              d="M 461.793091,-670.735046 A 76.775561,76.775561 0,0 1,400.519684,-642.706055"
              stroke="#00ff4d" stroke-width="3.0" stroke-opacity="1.0"/>
        <path stroke-linecap="round" fill="none" class="id_n43 id_n63"
              d="M 105.612068,251.229095 A 118.036037,118.036037 0,0 1,10.203549,182.795227"
              stroke="#00ffa6" stroke-width="3.0" stroke-opacity="1.0"/>
        <path stroke-linecap="round" fill="none" class="id_n44 id_n63"
              d="M -23.799835,302.234253 A 123.465648,123.465648 0,0 1,-8.849509,179.166122"
              stroke="#00ffa6" stroke-width="3.0" stroke-opacity="1.0"/>
        <path stroke-linecap="round" fill="none" class="id_n45 id_n63"
              d="M -179.656281,371.507660 A 236.915833,236.915833 0,0 1,-14.614999,169.860977"
              stroke="#00ffa6" stroke-width="3.0" stroke-opacity="1.0"/>
        <path stroke-linecap="round" fill="none" class="id_n46 id_n63"
              d="M 24.949297,1.910804 A 143.748964,143.748964 0,0 1,15.562440,150.061401"
              stroke="#00ffa6" stroke-width="3.0" stroke-opacity="1.0"/>
        <path stroke-linecap="round" fill="none" class="id_n47 id_n63"
              d="M 383.721558,-635.732483 A 745.231039,745.231039 0,0 1,20.374956,155.760849"
              stroke="#00ffa6" stroke-width="3.0" stroke-opacity="1.0"/>
        <path stroke-linecap="round" fill="none" class="id_n48 id_n47"
              d="M 412.402405,-852.808289 A 181.346377,181.346377 0,0 1,394.122009,-659.935974"
              stroke="#00ff4d" stroke-width="3.0" stroke-opacity="1.0"/>
        <path stroke-linecap="round" fill="none" class="id_n49 id_n63"
              d="M 18.617208,318.309998 A 135.175712,135.175712 0,0 1,-4.349005,182.125397"
              stroke="#00ffa6" stroke-width="3.0" stroke-opacity="1.0"/>
        <path stroke-linecap="round" fill="none" class="id_n50 id_n47"
              d="M 525.757202,-796.619690 A 180.682900,180.682900 0,0 1,400.158600,-650.161194"
              stroke="#00ff4d" stroke-width="3.0" stroke-opacity="1.0"/>
        <path stroke-linecap="round" fill="none" class="id_n51 id_n63"
              d="M -776.792542,181.968842 A 657.279484,657.279484 0,0 1,-11.951376,154.208389"
              stroke="#00ffa6" stroke-width="3.0" stroke-opacity="1.0"/>
        <path stroke-linecap="round" fill="none" class="id_n52 id_n63"
              d="M -8.914920,32.716255 A 117.454778,117.454778 0,0 1,11.560746,147.617416"
              stroke="#00ffa6" stroke-width="3.0" stroke-opacity="1.0"/>
        <path stroke-linecap="round" fill="none" class="id_n53 id_n63"
              d="M 104.503387,80.625389 A 116.261045,116.261045 0,0 1,22.433950,161.566467"
              stroke="#00ffa6" stroke-width="3.0" stroke-opacity="1.0"/>
        <path stroke-linecap="round" fill="none" class="id_n54 id_n63"
              d="M -64.904778,51.082306 A 117.555372,117.555372 0,0 1,3.306788,145.935349"
              stroke="#00ffa6" stroke-width="3.0" stroke-opacity="1.0"/>
        <path stroke-linecap="round" fill="none" class="id_n55 id_n31"
              d="M 453.517242,622.635986 A 91.192178,91.192178 0,0 1,400.862396,556.020264"
              stroke="#00ff4d" stroke-width="3.0" stroke-opacity="1.0"/>
        <path stroke-linecap="round" fill="none" class="id_n56 id_n47"
              d="M 418.903717,-720.395081 A 76.483329,76.483329 0,0 1,396.783142,-657.126953"
              stroke="#00ff4d" stroke-width="3.0" stroke-opacity="1.0"/>
        <path stroke-linecap="round" fill="none" class="id_n57 id_n63"
              d="M 142.659714,141.665741 A 124.150805,124.150805 0,0 1,21.511494,171.636185"
              stroke="#00ffa6" stroke-width="3.0" stroke-opacity="1.0"/>
        <path stroke-linecap="round" fill="none" class="id_n58 id_n47"
              d="M 305.489563,-692.334167 A 81.370827,81.370827 0,0 1,371.715179,-661.677979"
              stroke="#00ff4d" stroke-width="3.0" stroke-opacity="1.0"/>
        <path stroke-linecap="round" fill="none" class="id_n59 id_n63"
              d="M -152.162674,187.356979 A 138.008621,138.008621 0,0 1,-13.799149,157.610443"
              stroke="#00ffa6" stroke-width="3.0" stroke-opacity="1.0"/>
        <path stroke-linecap="round" fill="none" class="id_n60 id_n63"
              d="M 51.482506,290.727783 A 118.900396,118.900396 0,0 1,0.731764,183.691818"
              stroke="#00ffa6" stroke-width="3.0" stroke-opacity="1.0"/>
        <path stroke-linecap="round" fill="none" class="id_n61 id_n63"
              d="M 284.077545,167.835800 A 240.350714,240.350714 0,0 1,19.484665,175.556961"
              stroke="#00ffa6" stroke-width="3.0" stroke-opacity="1.0"/>
        <path stroke-linecap="round" fill="none" class="id_n62 id_n63"
              d="M 53.473522,40.398155 A 118.520668,118.520668 0,0 1,18.629835,153.135712"
              stroke="#00ffa6" stroke-width="3.0" stroke-opacity="1.0"/>
        <path fill="none" stroke-width="3.0"
              d="M 3.734138,164.930542 C 23.734138,144.930542 23.734138,184.930542 3.734138,164.930542"
              class="id_n63" stroke-opacity="1.0" stroke="#00ffff"/>
    </g>
    <g id="arrows">
        <polyline fill="#00ff4d" fill-opacity="1.0" class="id_n0 id_n32"
                  points="597.127319,-681.123535 607.114258,-682.353271 604.103271,-673.871826"
                  stroke="none"/>
        <polyline fill="#00ff4d" fill-opacity="1.0" class="id_n1 id_n48"
                  points="413.383270,-869.785278 414.870758,-879.737061 422.237152,-874.566406"
                  stroke="none"/>
        <polyline fill="#00ff4d" fill-opacity="1.0" class="id_n2 id_n45"
                  points="-189.922028,384.768494 -196.936798,391.982574 -199.902161,383.485138"
                  stroke="none"/>
        <polyline fill="#00ff4d" fill-opacity="1.0" class="id_n3 id_n61"
                  points="300.855896,166.820084 310.906342,167.308563 306.495392,175.153534"
                  stroke="none"/>
        <polyline fill="#00ff4d" fill-opacity="1.0" class="id_n4 id_n51"
                  points="-792.910095,193.792679 -797.792725,202.590988 -802.878296,195.165604"
                  stroke="none"/>
        <polyline fill="#00ff4d" fill-opacity="1.0" class="id_n5 id_n51"
                  points="-779.070068,179.850052 -777.770813,169.871979 -770.308044,174.902618"
                  stroke="none"/>
        <polyline fill="#00ffa6" fill-opacity="1.0" class="id_n6 id_n63"
                  points="-2.640543,157.225769 -11.844900,153.160095 -4.910610,147.422882"
                  stroke="none"/>
        <polyline fill="#00ff4d" fill-opacity="1.0" class="id_n7 id_n31"
                  points="404.149139,545.848816 412.423096,551.575256 404.532349,555.903870"
                  stroke="none"/>
        <polyline fill="#00ff4d" fill-opacity="1.0" class="id_n8 id_n34"
                  points="276.466980,-838.781006 271.697418,-847.641113 280.693329,-847.912720"
                  stroke="none"/>
        <polyline fill="#00ff4d" fill-opacity="1.0" class="id_n9 id_n50"
                  points="536.448120,-809.630066 543.624695,-816.683167 546.396545,-808.120667"
                  stroke="none"/>
        <polyline fill="#00ff4d" fill-opacity="1.0" class="id_n10 id_n47"
                  points="382.991333,-655.452637 379.661438,-664.947998 388.589661,-663.813721"
                  stroke="none"/>
        <polyline fill="#00ffa6" fill-opacity="1.0" class="id_n11 id_n63"
                  points="4.582629,174.894485 9.830042,183.480209 0.862498,184.243851"
                  stroke="none"/>
        <polyline fill="#00ff4d" fill-opacity="1.0" class="id_n12 id_n51"
                  points="-783.627502,178.195404 -787.174500,168.779007 -778.222595,169.707962"
                  stroke="none"/>
        <polyline fill="#00ff4d" fill-opacity="1.0" class="id_n13 id_n51"
                  points="-794.037109,184.668732 -804.039795,185.762634 -800.913818,177.322937"
                  stroke="none"/>
        <polyline fill="#00ffa6" fill-opacity="1.0" class="id_n14 id_n63"
                  points="11.564789,171.149948 21.411102,173.223618 15.813644,180.271194"
                  stroke="none"/>
        <polyline fill="#00ffa6" fill-opacity="1.0" class="id_n15 id_n63"
                  points="-4.872866,170.021667 -10.328166,178.476822 -14.910172,170.730515"
                  stroke="none"/>
        <polyline fill="#00ff4d" fill-opacity="1.0" class="id_n16 id_n35"
                  points="-16.781971,565.032837 -15.665155,575.032959 -24.111990,571.926392"
                  stroke="none"/>
        <polyline fill="#00ff4d" fill-opacity="1.0" class="id_n17 id_n51"
                  points="-794.594360,187.000778 -804.049072,190.444275 -803.021973,181.503082"
                  stroke="none"/>
        <polyline fill="#00ff4d" fill-opacity="1.0" class="id_n18 id_n47"
                  points="372.133240,-648.339783 362.231873,-646.547485 364.758545,-655.185547"
                  stroke="none"/>
        <polyline fill="#00ffa6" fill-opacity="1.0" class="id_n19 id_n63"
                  points="9.374866,173.187790 18.167282,178.080994 10.735757,183.157654"
                  stroke="none"/>
        <polyline fill="#00ff4d" fill-opacity="1.0" class="id_n20 id_n51"
                  points="-788.845154,197.223953 -788.525208,207.281158 -796.698914,203.514252"
                  stroke="none"/>
        <polyline fill="#00ff4d" fill-opacity="1.0" class="id_n21 id_n51"
                  points="-787.512146,178.557449 -794.392395,171.214981 -785.766296,168.647751"
                  stroke="none"/>
        <polyline fill="#00ffa6" fill-opacity="1.0" class="id_n22 id_n63"
                  points="-4.343327,159.035248 -14.265930,157.364334 -8.960161,150.094620"
                  stroke="none"/>
        <polyline fill="#00ff4d" fill-opacity="1.0" class="id_n23 id_n31"
                  points="396.325714,546.616394 397.903961,556.554138 389.322479,553.841614"
                  stroke="none"/>
        <polyline fill="#00ff4d" fill-opacity="1.0" class="id_n24 id_n35"
                  points="-20.699718,562.406921 -24.290546,571.806702 -30.374043,565.174133"
                  stroke="none"/>
        <polyline fill="#00ff4d" fill-opacity="1.0" class="id_n25 id_n51"
                  points="-794.518494,189.816223 -802.638062,195.759491 -804.144897,186.886536"
                  stroke="none"/>
        <polyline fill="#00ff4d" fill-opacity="1.0" class="id_n26 id_n47"
                  points="381.516815,-635.534668 385.822937,-626.440247 376.825012,-626.633118"
                  stroke="none"/>
        <polyline fill="#00ffa6" fill-opacity="1.0" class="id_n27 id_n63"
                  points="1.497423,155.183899 -4.901612,147.418427 3.870369,145.405396"
                  stroke="none"/>
        <polyline fill="#00ff4d" fill-opacity="1.0" class="id_n28 id_n51"
                  points="-790.569946,180.075500 -799.519165,175.475296 -792.259277,170.156021"
                  stroke="none"/>
        <polyline fill="#00ff4d" fill-opacity="1.0" class="id_n29 id_n51"
                  points="-791.789246,181.129913 -801.361328,178.027359 -795.050415,171.610733"
                  stroke="none"/>
        <polyline fill="#00ffa6" fill-opacity="1.0" class="id_n30 id_n63"
                  points="12.934675,161.012619 19.452093,153.346252 22.978224,161.626740"
                  stroke="none"/>
        <polyline fill="#00ffa6" fill-opacity="1.0" class="id_n31 id_n63"
                  points="5.656378,174.744049 11.802473,182.711212 2.970313,184.441223"
                  stroke="none"/>
        <polyline fill="#00ff4d" fill-opacity="1.0" class="id_n32 id_n47"
                  points="390.932861,-641.617371 400.976227,-642.234741 397.452789,-633.953125"
                  stroke="none"/>
        <polyline fill="#00ffa6" fill-opacity="1.0" class="id_n33 id_n63"
                  points="-6.212811,163.901855 -15.627975,167.452148 -14.702156,158.499908"
                  stroke="none"/>
        <polyline fill="#00ff4d" fill-opacity="1.0" class="id_n34 id_n47"
                  points="382.423889,-655.508301 378.558197,-664.798462 387.536591,-664.174927"
                  stroke="none"/>
        <polyline fill="#00ffa6" fill-opacity="1.0" class="id_n35 id_n63"
                  points="-2.381173,172.842743 -4.324462,182.715622 -11.445445,177.211838"
                  stroke="none"/>
        <polyline fill="#00ffa6" fill-opacity="1.0" class="id_n36 id_n63"
                  points="-0.757884,155.996246 -8.821138,149.976776 -0.780268,145.933960"
                  stroke="none"/>
        <polyline fill="#00ffa6" fill-opacity="1.0" class="id_n37 id_n63"
                  points="13.701276,165.740601 23.036222,161.984421 22.307177,170.954849"
                  stroke="none"/>
        <polyline fill="#00ffa6" fill-opacity="1.0" class="id_n38 id_n63"
                  points="5.870897,155.161499 3.397909,145.407806 12.190051,147.330902"
                  stroke="none"/>
        <polyline fill="#00ff4d" fill-opacity="1.0" class="id_n39 id_n31"
                  points="407.388336,543.015869 417.302704,544.734985 411.961639,551.978882"
                  stroke="none"/>
        <polyline fill="#00ff4d" fill-opacity="1.0" class="id_n40 id_n47"
                  points="388.156586,-637.869934 397.387665,-633.865234 390.491486,-628.082275"
                  stroke="none"/>
        <polyline fill="#00ffa6" fill-opacity="1.0" class="id_n41 id_n63"
                  points="-6.043514,167.027573 -13.899740,173.314835 -15.787062,164.514938"
                  stroke="none"/>
        <polyline fill="#00ff4d" fill-opacity="1.0" class="id_n42 id_n47"
                  points="391.619812,-644.044861 401.189056,-647.156006 399.850311,-638.256104"
                  stroke="none"/>
        <polyline fill="#00ffa6" fill-opacity="1.0" class="id_n43 id_n63"
                  points="7.139091,174.333008 14.434656,181.263000 5.972440,184.327454"
                  stroke="none"/>
        <polyline fill="#00ffa6" fill-opacity="1.0" class="id_n44 id_n63"
                  points="-2.888834,172.422958 -5.477924,182.146454 -12.221094,176.185791"
                  stroke="none"/>
        <polyline fill="#00ffa6" fill-opacity="1.0" class="id_n45 id_n63"
                  points="-5.923303,167.525513 -13.447267,174.206833 -15.782733,165.515121"
                  stroke="none"/>
        <polyline fill="#00ffa6" fill-opacity="1.0" class="id_n46 id_n63"
                  points="9.959560,157.104675 12.040801,147.259964 19.084078,152.862839"
                  stroke="none"/>
        <polyline fill="#00ffa6" fill-opacity="1.0" class="id_n47 id_n63"
                  points="12.492464,160.104385 18.203190,151.819595 22.546726,159.702103"
                  stroke="none"/>
        <polyline fill="#00ff4d" fill-opacity="1.0" class="id_n48 id_n47"
                  points="388.252625,-653.113220 390.710632,-662.870667 397.533386,-657.001282"
                  stroke="none"/>
        <polyline fill="#00ffa6" fill-opacity="1.0" class="id_n49 id_n63"
                  points="-0.520148,173.980469 -0.276542,184.039825 -8.421470,180.210968"
                  stroke="none"/>
        <polyline fill="#00ff4d" fill-opacity="1.0" class="id_n50 id_n47"
                  points="391.429779,-647.968567 399.062317,-654.525635 401.254944,-645.796753"
                  stroke="none"/>
        <polyline fill="#00ffa6" fill-opacity="1.0" class="id_n51 id_n63"
                  points="-4.521396,159.287308 -14.490834,157.923386 -9.411918,150.493393"
                  stroke="none"/>
        <polyline fill="#00ffa6" fill-opacity="1.0" class="id_n52 id_n63"
                  points="7.853405,155.818375 7.460269,145.763748 15.661222,149.471085"
                  stroke="none"/>
        <polyline fill="#00ffa6" fill-opacity="1.0" class="id_n53 id_n63"
                  points="13.576145,163.159973 21.637196,157.137558 23.230705,165.995377"
                  stroke="none"/>
        <polyline fill="#00ffa6" fill-opacity="1.0" class="id_n54 id_n63"
                  points="3.509218,154.933075 -1.192073,146.036560 7.805650,145.834137"
                  stroke="none"/>
        <polyline fill="#00ff4d" fill-opacity="1.0" class="id_n55 id_n31"
                  points="400.141083,547.049194 405.347931,555.659607 396.376862,556.380920"
                  stroke="none"/>
        <polyline fill="#00ff4d" fill-opacity="1.0" class="id_n56 id_n47"
                  points="389.653229,-651.634766 394.037048,-660.691895 399.529236,-653.562012"
                  stroke="none"/>
        <polyline fill="#00ffa6" fill-opacity="1.0" class="id_n57 id_n63"
                  points="13.090641,168.459824 23.099672,167.425751 19.923315,175.846619"
                  stroke="none"/>
        <polyline fill="#00ff4d" fill-opacity="1.0" class="id_n58 id_n47"
                  points="376.459534,-654.030029 367.891205,-659.305786 375.539154,-664.050171"
                  stroke="none"/>
        <polyline fill="#00ffa6" fill-opacity="1.0" class="id_n59 id_n63"
                  points="-5.493908,161.077850 -15.532856,161.763062 -12.065441,153.457825"
                  stroke="none"/>
        <polyline fill="#00ffa6" fill-opacity="1.0" class="id_n60 id_n63"
                  points="2.153941,174.804901 5.175226,184.402908 -3.711698,182.980728"
                  stroke="none"/>
        <polyline fill="#00ffa6" fill-opacity="1.0" class="id_n61 id_n63"
                  points="12.023890,170.523392 22.001450,171.826569 16.967880,179.287354"
                  stroke="none"/>
        <polyline fill="#00ffa6" fill-opacity="1.0" class="id_n62 id_n63"
                  points="11.573980,158.722733 15.836323,149.607788 21.423351,156.663635"
                  stroke="none"/>
    </g>
    <g id="nodes">
        <circle fill-opacity="1.0" fill="#00ff4d" r="9.2" cx="672.4054"
                class="id_n0" cy="-698.94916" stroke="#000000"
                stroke-opacity="1.0" stroke-width="1.5999999"/>
        <circle fill-opacity="1.0" fill="#00ff4d" r="9.2" cx="416.26675"
                class="id_n1" cy="-949.77924" stroke="#000000"
                stroke-opacity="1.0" stroke-width="1.5999999"/>
        <circle fill-opacity="1.0" fill="#00ff4d" r="9.2" cx="-248.91794"
                class="id_n2" cy="462.9046" stroke="#000000"
                stroke-opacity="1.0" stroke-width="1.5999999"/>
        <circle fill-opacity="1.0" fill="#00ff4d" r="9.2" cx="399.17276"
                class="id_n3" cy="159.28435" stroke="#000000"
                stroke-opacity="1.0" stroke-width="1.5999999"/>
        <circle fill-opacity="1.0" fill="#00ff4d" r="9.2" cx="-829.0821"
                class="id_n4" cy="283.69403" stroke="#000000"
                stroke-opacity="1.0" stroke-width="1.5999999"/>
        <circle fill-opacity="1.0" fill="#00ff4d" r="9.2" cx="-777.7497"
                class="id_n5" cy="98.79099" stroke="#000000"
                stroke-opacity="1.0" stroke-width="1.5999999"/>
        <circle fill-opacity="1.0" fill="#00ff4d" r="9.2" cx="-160.81877"
                class="id_n6" cy="113.61816" stroke="#000000"
                stroke-opacity="1.0" stroke-width="1.5999999"/>
        <circle fill-opacity="1.0" fill="#00ff4d" r="9.2" cx="493.6688"
                class="id_n7" cy="592.35254" stroke="#000000"
                stroke-opacity="1.0" stroke-width="1.5999999"/>
        <circle fill-opacity="1.0" fill="#00ff4d" r="9.2" cx="231.98064"
                class="id_n8" cy="-903.1653" stroke="#000000"
                stroke-opacity="1.0" stroke-width="1.5999999"/>
        <circle fill-opacity="1.0" fill="#00ff4d" r="9.2" cx="586.6235"
                class="id_n9" cy="-871.40924" stroke="#000000"
                stroke-opacity="1.0" stroke-width="1.5999999"/>
        <circle fill-opacity="1.0" fill="#00ff4d" r="9.2" cx="345.8703"
                class="id_n10" cy="-731.64026" stroke="#000000"
                stroke-opacity="1.0" stroke-width="1.5999999"/>
        <circle fill-opacity="1.0" fill="#00ff4d" r="9.2" cx="107.41586"
                class="id_n11" cy="298.2726" stroke="#000000"
                stroke-opacity="1.0" stroke-width="1.5999999"/>
        <circle fill-opacity="1.0" fill="#00ff4d" r="9.2" cx="-829.3154"
                class="id_n12" cy="91.49228" stroke="#000000"
                stroke-opacity="1.0" stroke-width="1.5999999"/>
        <circle fill-opacity="1.0" fill="#00ff4d" r="9.2" cx="-912.4305"
                class="id_n13" cy="214.20859" stroke="#000000"
                stroke-opacity="1.0" stroke-width="1.5999999"/>
        <circle fill-opacity="1.0" fill="#00ff4d" r="9.2" cx="151.45615"
                class="id_n14" cy="180.4303" stroke="#000000"
                stroke-opacity="1.0" stroke-width="1.5999999"/>
        <circle fill-opacity="1.0" fill="#00ff4d" r="9.2" cx="-64.16354"
                class="id_n15" cy="298.88684" stroke="#000000"
                stroke-opacity="1.0" stroke-width="1.5999999"/>
        <circle fill-opacity="1.0" fill="#00ff4d" r="9.2" cx="5.1528897"
                class="id_n16" cy="657.0679" stroke="#000000"
                stroke-opacity="1.0" stroke-width="1.5999999"/>
        <circle fill-opacity="1.0" fill="#00ff4d" r="9.2" cx="-866.5962"
                class="id_n17" cy="222.84833" stroke="#000000"
                stroke-opacity="1.0" stroke-width="1.5999999"/>
        <circle fill-opacity="1.0" fill="#00ff4d" r="9.2" cx="296.3174"
                class="id_n18" cy="-625.6625" stroke="#000000"
                stroke-opacity="1.0" stroke-width="1.5999999"/>
        <circle fill-opacity="1.0" fill="#00ff4d" r="9.2" cx="154.35902"
                class="id_n19" cy="228.2264" stroke="#000000"
                stroke-opacity="1.0" stroke-width="1.5999999"/>
        <circle fill-opacity="1.0" fill="#00ff4d" r="9.2" cx="-777.2345"
                class="id_n20" cy="276.96283" stroke="#000000"
                stroke-opacity="1.0" stroke-width="1.5999999"/>
        <circle fill-opacity="1.0" fill="#00ff4d" r="9.2" cx="-878.677"
                class="id_n21" cy="104.23716" stroke="#000000"
                stroke-opacity="1.0" stroke-width="1.5999999"/>
        <circle fill-opacity="1.0" fill="#00ff4d" r="9.2" cx="-135.17616"
                class="id_n22" cy="155.3389" stroke="#000000"
                stroke-opacity="1.0" stroke-width="1.5999999"/>
        <circle fill-opacity="1.0" fill="#00ff4d" r="9.2" cx="417.96887"
                class="id_n23" cy="624.6349" stroke="#000000"
                stroke-opacity="1.0" stroke-width="1.5999999"/>
        <circle fill-opacity="1.0" fill="#00ff4d" r="9.2" cx="-43.597412"
                class="id_n24" cy="655.38055" stroke="#000000"
                stroke-opacity="1.0" stroke-width="1.5999999"/>
        <circle fill-opacity="1.0" fill="#00ff4d" r="9.2" cx="-878.237"
                class="id_n25" cy="270.21536" stroke="#000000"
                stroke-opacity="1.0" stroke-width="1.5999999"/>
        <circle fill-opacity="1.0" fill="#00ff4d" r="9.2" cx="422.77954"
                class="id_n26" cy="-568.72205" stroke="#000000"
                stroke-opacity="1.0" stroke-width="1.5999999"/>
        <circle fill-opacity="1.0" fill="#00ff4d" r="9.2" cx="-123.18727"
                class="id_n27" cy="42.72678" stroke="#000000"
                stroke-opacity="1.0" stroke-width="1.5999999"/>
        <circle fill-opacity="1.0" fill="#00ff4d" r="9.2" cx="-865.94366"
                class="id_n28" cy="151.53152" stroke="#000000"
                stroke-opacity="1.0" stroke-width="1.5999999"/>
        <circle fill-opacity="1.0" fill="#00ff4d" r="9.2" cx="-912.24023"
                class="id_n29" cy="159.49403" stroke="#000000"
                stroke-opacity="1.0" stroke-width="1.5999999"/>
        <circle fill-opacity="1.0" fill="#00ff4d" r="9.2" cx="98.71109"
                class="id_n30" cy="23.605387" stroke="#000000"
                stroke-opacity="1.0" stroke-width="1.5999999"/>
        <circle fill-opacity="1.0" fill="#00ff4d" r="9.2" cx="399.33963"
                class="id_n31" cy="537.08136" stroke="#000000"
                stroke-opacity="1.0" stroke-width="1.5999999"/>
        <circle fill-opacity="1.0" fill="#00ff4d" r="9.2" cx="587.70355"
                class="id_n32" cy="-684.469" stroke="#000000"
                stroke-opacity="1.0" stroke-width="1.5999999"/>
        <circle fill-opacity="1.0" fill="#00ff4d" r="9.2" cx="-128.32466"
                class="id_n33" cy="230.87651" stroke="#000000"
                stroke-opacity="1.0" stroke-width="1.5999999"/>
        <circle fill-opacity="1.0" fill="#00ff4d" r="9.2" cx="276.76877"
                class="id_n34" cy="-828.7856" stroke="#000000"
                stroke-opacity="1.0" stroke-width="1.5999999"/>
        <circle fill-opacity="1.0" fill="#00ff4d" r="9.2" cx="-13.33019"
                class="id_n35" cy="555.64746" stroke="#000000"
                stroke-opacity="1.0" stroke-width="1.5999999"/>
        <circle fill-opacity="1.0" fill="#00ff4d" r="9.2" cx="-117.64717"
                class="id_n36" cy="91.84559" stroke="#000000"
                stroke-opacity="1.0" stroke-width="1.5999999"/>
        <circle fill-opacity="1.0" fill="#00ff4d" r="9.2" cx="149.80089"
                class="id_n37" cy="86.33913" stroke="#000000"
                stroke-opacity="1.0" stroke-width="1.5999999"/>
        <circle fill-opacity="1.0" fill="#00ff4d" r="9.2" cx="-58.76849"
                class="id_n38" cy="0.5275356" stroke="#000000"
                stroke-opacity="1.0" stroke-width="1.5999999"/>
        <circle fill-opacity="1.0" fill="#00ff4d" r="9.2" cx="488.21994"
                class="id_n39" cy="547.7562" stroke="#000000"
                stroke-opacity="1.0" stroke-width="1.5999999"/>
        <circle fill-opacity="1.0" fill="#00ff4d" r="9.2" cx="472.1524"
                class="id_n40" cy="-612.70435" stroke="#000000"
                stroke-opacity="1.0" stroke-width="1.5999999"/>
        <circle fill-opacity="1.0" fill="#00ff4d" r="9.2" cx="-102.32585"
                class="id_n41" cy="269.46265" stroke="#000000"
                stroke-opacity="1.0" stroke-width="1.5999999"/>
        <circle fill-opacity="1.0" fill="#00ff4d" r="9.2" cx="467.62234"
                class="id_n42" cy="-678.8603" stroke="#000000"
                stroke-opacity="1.0" stroke-width="1.5999999"/>
        <circle fill-opacity="1.0" fill="#00ff4d" r="9.2" cx="115.5945"
                class="id_n43" cy="251.82169" stroke="#000000"
                stroke-opacity="1.0" stroke-width="1.5999999"/>
        <circle fill-opacity="1.0" fill="#00ff4d" r="9.2" cx="-19.489906"
                class="id_n44" cy="311.2578" stroke="#000000"
                stroke-opacity="1.0" stroke-width="1.5999999"/>
        <circle fill-opacity="1.0" fill="#00ff4d" r="9.2" cx="-180.48042"
                class="id_n45" cy="381.47363" stroke="#000000"
                stroke-opacity="1.0" stroke-width="1.5999999"/>
        <circle fill-opacity="1.0" fill="#00ff4d" r="9.2" cx="20.031872"
                class="id_n46" cy="-6.796603" stroke="#000000"
                stroke-opacity="1.0" stroke-width="1.5999999"/>
        <circle fill-opacity="1.0" fill="#00ff4d" r="9.2" cx="381.73108"
                class="id_n47" cy="-645.53235" stroke="#000000"
                stroke-opacity="1.0" stroke-width="1.5999999"/>
        <circle fill-opacity="1.0" fill="#00ff4d" r="9.2" cx="407.63806"
                class="id_n48" cy="-861.6004" stroke="#000000"
                stroke-opacity="1.0" stroke-width="1.5999999"/>
        <circle fill-opacity="1.0" fill="#00ff4d" r="9.2" cx="25.361805"
                class="id_n49" cy="325.6931" stroke="#000000"
                stroke-opacity="1.0" stroke-width="1.5999999"/>
        <circle fill-opacity="1.0" fill="#00ff4d" r="9.2" cx="526.9342"
                class="id_n50" cy="-806.5502" stroke="#000000"
                stroke-opacity="1.0" stroke-width="1.5999999"/>
        <circle fill-opacity="1.0" fill="#00ff4d" r="9.2" cx="-784.65967"
                class="id_n51" cy="188.142" stroke="#000000"
                stroke-opacity="1.0" stroke-width="1.5999999"/>
        <circle fill-opacity="1.0" fill="#00ff4d" r="9.2" cx="-15.649535"
                class="id_n52" cy="25.324034" stroke="#000000"
                stroke-opacity="1.0" stroke-width="1.5999999"/>
        <circle fill-opacity="1.0" fill="#00ff4d" r="9.2" cx="106.78923"
                class="id_n53" cy="70.890144" stroke="#000000"
                stroke-opacity="1.0" stroke-width="1.5999999"/>
        <circle fill-opacity="1.0" fill="#00ff4d" r="9.2" cx="-74.17371"
                class="id_n54" cy="47.32906" stroke="#000000"
                stroke-opacity="1.0" stroke-width="1.5999999"/>
        <circle fill-opacity="1.0" fill="#00ff4d" r="9.2" cx="462.86636"
                class="id_n55" cy="626.18475" stroke="#000000"
                stroke-opacity="1.0" stroke-width="1.5999999"/>
        <circle fill-opacity="1.0" fill="#00ff4d" r="9.2" cx="417.08765"
                class="id_n56" cy="-730.22876" stroke="#000000"
                stroke-opacity="1.0" stroke-width="1.5999999"/>
        <circle fill-opacity="1.0" fill="#00ff4d" r="9.2" cx="149.55887"
                class="id_n57" cy="134.42683" stroke="#000000"
                stroke-opacity="1.0" stroke-width="1.5999999"/>
        <circle fill-opacity="1.0" fill="#00ff4d" r="9.2" cx="295.53275"
                class="id_n58" cy="-691.406" stroke="#000000"
                stroke-opacity="1.0" stroke-width="1.5999999"/>
        <circle fill-opacity="1.0" fill="#00ff4d" r="9.2" cx="-159.22684"
                class="id_n59" cy="194.43495" stroke="#000000"
                stroke-opacity="1.0" stroke-width="1.5999999"/>
        <circle fill-opacity="1.0" fill="#00ff4d" r="9.2" cx="59.93092"
                class="id_n60" cy="296.07794" stroke="#000000"
                stroke-opacity="1.0" stroke-width="1.5999999"/>
        <circle fill-opacity="1.0" fill="#00ff4d" r="9.2" cx="292.13928"
                class="id_n61" cy="161.91902" stroke="#000000"
                stroke-opacity="1.0" stroke-width="1.5999999"/>
        <circle fill-opacity="1.0" fill="#00ff4d" r="9.2" cx="50.868866"
                class="id_n62" cy="30.743324" stroke="#000000"
                stroke-opacity="1.0" stroke-width="1.5999999"/>
        <circle fill-opacity="1.0" fill="#00ffff" r="9.2" cx="3.7341385"
                class="id_n63" cy="164.93054" stroke="#000000"
                stroke-opacity="1.0" stroke-width="1.5999999"/>
    </g>
</svg>