<?xml version="1.0" encoding="UTF-8"?>
<!DOCTYPE svg PUBLIC "-//W3C//DTD SVG 1.1//EN"
    "http://www.w3.org/Graphics/SVG/1.1/DTD/svg11.dtd" >
<svg contentScriptType="text/ecmascript" width="1895.0"
     xmlns:xlink="http://www.w3.org/1999/xlink" zoomAndPan="magnify"
     contentStyleType="text/css"
     viewBox="-948.000000 -450.000000 1895.000000 1002.000000" height="1002.0"
     preserveAspectRatio="xMidYMid meet" xmlns="http://www.w3.org/2000/svg"
     version="1.1">
    <g id="edges">
        <path stroke-linecap="round" fill="none" class="id_n0 id_n32"
              d="M 861.780396,537.254272 A 64.769590,64.769590 0,0 1,830.845093,494.582764"
              stroke="#00ff4d" stroke-width="3.0" stroke-opacity="1.0"/>
        <path stroke-linecap="round" fill="none" class="id_n1 id_n56"
              d="M -589.543823,-362.288483 A 85.219005,85.219005 0,0 1,-581.726807,-285.025391"
              stroke="#00ff4d" stroke-width="3.0" stroke-opacity="1.0"/>
        <path stroke-linecap="round" fill="none" class="id_n2 id_n45"
              d="M 682.160339,-430.835999 A 83.478708,83.478708 0,0 1,670.116516,-356.260834"
              stroke="#00ff4d" stroke-width="3.0" stroke-opacity="1.0"/>
        <path stroke-linecap="round" fill="none" class="id_n3 id_n61"
              d="M 929.915039,7.605139 A 81.675431,81.675431 0,0 1,858.522644,24.427687"
              stroke="#00ff4d" stroke-width="3.0" stroke-opacity="1.0"/>
        <path stroke-linecap="round" fill="none" class="id_n4 id_n11"
              d="M 794.322327,-181.387695 A 85.262766,85.262766 0,0 1,728.714661,-139.739304"
              stroke="#00ff4d" stroke-width="3.0" stroke-opacity="1.0"/>
        <path stroke-linecap="round" fill="none" class="id_n5 id_n59"
              d="M 428.166809,-369.133240 A 85.320800,85.320800 0,0 1,445.918213,-293.404694"
              stroke="#00ff4d" stroke-width="3.0" stroke-opacity="1.0"/>
        <path stroke-linecap="round" fill="none" class="id_n6 id_n47"
              d="M -693.677063,1.070035 A 104.114446,104.114446 0,0 1,-594.338684,-14.659620"
              stroke="#00ff4d" stroke-width="3.0" stroke-opacity="1.0"/>
        <path stroke-linecap="round" fill="none" class="id_n7 id_n63"
              d="M 592.543335,45.921539 A 114.054332,114.054332 0,0 1,489.725769,0.013285"
              stroke="#00ffa6" stroke-width="3.0" stroke-opacity="1.0"/>
        <path stroke-linecap="round" fill="none" class="id_n8 id_n38"
              d="M -615.351196,343.039429 A 83.911346,83.911346 0,0 1,-614.322571,266.978790"
              stroke="#00ff4d" stroke-width="3.0" stroke-opacity="1.0"/>
        <path stroke-linecap="round" fill="none" class="id_n9 id_n62"
              d="M -886.284546,314.822449 A 80.610628,80.610628 0,0 1,-854.530334,250.145523"
              stroke="#00ff4d" stroke-width="3.0" stroke-opacity="1.0"/>
        <path stroke-linecap="round" fill="none" class="id_n10 id_n47"
              d="M -612.747253,-119.781151 A 105.666010,105.666010 0,0 1,-573.336365,-25.210251"
              stroke="#00ff4d" stroke-width="3.0" stroke-opacity="1.0"/>
        <path stroke-linecap="round" fill="none" class="id_n11 id_n63"
              d="M 705.315125,-131.125641 A 217.678367,217.678367 0,0 1,498.669525,-14.171667"
              stroke="#00ffa6" stroke-width="3.0" stroke-opacity="1.0"/>
        <path stroke-linecap="round" fill="none" class="id_n12 id_n47"
              d="M -614.440063,108.204910 A 107.373093,107.373093 0,0 1,-591.059937,6.333234"
              stroke="#00ff4d" stroke-width="3.0" stroke-opacity="1.0"/>
        <path stroke-linecap="round" fill="none" class="id_n13 id_n63"
              d="M 352.483917,5.220161 A 114.339710,114.339710 0,0 1,461.927551,-22.688993"
              stroke="#00ffa6" stroke-width="3.0" stroke-opacity="1.0"/>
        <path stroke-linecap="round" fill="none" class="id_n14 id_n47"
              d="M -683.283630,49.751335 A 106.930029,106.930029 0,0 1,-596.131897,-6.969518"
              stroke="#00ff4d" stroke-width="3.0" stroke-opacity="1.0"/>
        <path stroke-linecap="round" fill="none" class="id_n15 id_n63"
              d="M 459.079407,237.455704 A 218.783281,218.783281 0,0 1,468.146545,-1.146868"
              stroke="#00ffa6" stroke-width="3.0" stroke-opacity="1.0"/>
        <path stroke-linecap="round" fill="none" class="id_n16 id_n44"
              d="M -782.418152,-308.061646 A 87.418718,87.418718 0,0 1,-734.065857,-243.912781"
              stroke="#00ff4d" stroke-width="3.0" stroke-opacity="1.0"/>
        <path stroke-linecap="round" fill="none" class="id_n17 id_n60"
              d="M -906.106201,-161.081238 A 86.748107,86.748107 0,0 1,-832.439514,-131.147949"
              stroke="#00ff4d" stroke-width="3.0" stroke-opacity="1.0"/>
        <path stroke-linecap="round" fill="none" class="id_n18 id_n45"
              d="M 721.481201,-407.850006 A 83.306659,83.306659 0,0 1,675.249084,-348.372894"
              stroke="#00ff4d" stroke-width="3.0" stroke-opacity="1.0"/>
        <path stroke-linecap="round" fill="none" class="id_n19 id_n61"
              d="M 921.652466,52.572285 A 80.226304,80.226304 0,0 1,852.974609,32.383751"
              stroke="#00ff4d" stroke-width="3.0" stroke-opacity="1.0"/>
        <path stroke-linecap="round" fill="none" class="id_n20 id_n47"
              d="M -524.474426,109.719582 A 113.176697,113.176697 0,0 1,-578.845764,12.328909"
              stroke="#00ff4d" stroke-width="3.0" stroke-opacity="1.0"/>
        <path stroke-linecap="round" fill="none" class="id_n21 id_n63"
              d="M 597.489258,-48.696877 A 108.552407,108.552407 0,0 1,498.229584,-11.652203"
              stroke="#00ffa6" stroke-width="3.0" stroke-opacity="1.0"/>
        <path stroke-linecap="round" fill="none" class="id_n22 id_n47"
              d="M -466.399323,44.073181 A 108.263177,108.263177 0,0 1,-565.907410,8.733389"
              stroke="#00ff4d" stroke-width="3.0" stroke-opacity="1.0"/>
        <path stroke-linecap="round" fill="none" class="id_n23 id_n63"
              d="M 353.404968,-40.635361 A 114.039811,114.039811 0,0 1,465.334839,-28.520834"
              stroke="#00ffa6" stroke-width="3.0" stroke-opacity="1.0"/>
        <path stroke-linecap="round" fill="none" class="id_n24 id_n46"
              d="M -930.765015,31.633118 A 84.902658,84.902658 0,0 1,-854.439087,19.572618"
              stroke="#00ff4d" stroke-width="3.0" stroke-opacity="1.0"/>
        <path stroke-linecap="round" fill="none" class="id_n25 id_n62"
              d="M -916.800293,280.221893 A 80.240628,80.240628 0,0 1,-857.165344,240.593658"
              stroke="#00ff4d" stroke-width="3.0" stroke-opacity="1.0"/>
        <path stroke-linecap="round" fill="none" class="id_n26 id_n47"
              d="M -456.810547,-2.309199 A 107.117878,107.117878 0,0 1,-560.874390,3.233176"
              stroke="#00ff4d" stroke-width="3.0" stroke-opacity="1.0"/>
        <path stroke-linecap="round" fill="none" class="id_n27 id_n63"
              d="M 479.838745,109.690849 A 111.664958,111.664958 0,0 1,470.449677,0.381322"
              stroke="#00ffa6" stroke-width="3.0" stroke-opacity="1.0"/>
        <path stroke-linecap="round" fill="none" class="id_n28 id_n47"
              d="M -463.233063,-49.468952 A 108.202905,108.202905 0,0 1,-558.347107,-3.766846"
              stroke="#00ff4d" stroke-width="3.0" stroke-opacity="1.0"/>
        <path stroke-linecap="round" fill="none" class="id_n29 id_n63"
              d="M 366.175507,48.227966 A 115.595330,115.595330 0,0 1,460.775238,-16.214960"
              stroke="#00ffa6" stroke-width="3.0" stroke-opacity="1.0"/>
        <path stroke-linecap="round" fill="none" class="id_n30 id_n47"
              d="M -484.383331,-90.240829 A 110.862041,110.862041 0,0 1,-558.598694,-10.763289"
              stroke="#00ff4d" stroke-width="3.0" stroke-opacity="1.0"/>
        <path stroke-linecap="round" fill="none" class="id_n31 id_n63"
              d="M 440.490967,-135.953140 A 111.826790,111.826790 0,0 1,483.490356,-34.805920"
              stroke="#00ffa6" stroke-width="3.0" stroke-opacity="1.0"/>
        <path stroke-linecap="round" fill="none" class="id_n32 id_n39"
              d="M 820.298828,472.170532 A 156.232357,156.232357 0,0 1,723.166382,340.658142"
              stroke="#00ff4d" stroke-width="3.0" stroke-opacity="1.0"/>
        <path stroke-linecap="round" fill="none" class="id_n33 id_n63"
              d="M 526.288147,104.527855 A 114.569596,114.569596 0,0 1,476.954437,2.616765"
              stroke="#00ffa6" stroke-width="3.0" stroke-opacity="1.0"/>
        <path stroke-linecap="round" fill="none" class="id_n34 id_n47"
              d="M -564.301147,-126.343132 A 107.145877,107.145877 0,0 1,-566.176392,-22.114765"
              stroke="#00ff4d" stroke-width="3.0" stroke-opacity="1.0"/>
        <path stroke-linecap="round" fill="none" class="id_n35 id_n63"
              d="M 397.520691,-118.114883 A 115.931697,115.931697 0,0 1,476.736938,-34.928196"
              stroke="#00ffa6" stroke-width="3.0" stroke-opacity="1.0"/>
        <path stroke-linecap="round" fill="none" class="id_n36 id_n15"
              d="M 449.988037,337.618225 A 84.172004,84.172004 0,0 1,453.262177,261.303864"
              stroke="#00ff4d" stroke-width="3.0" stroke-opacity="1.0"/>
        <path stroke-linecap="round" fill="none" class="id_n37 id_n63"
              d="M 392.622375,83.988571 A 117.414889,117.414889 0,0 1,461.830322,-9.929155"
              stroke="#00ffa6" stroke-width="3.0" stroke-opacity="1.0"/>
        <path stroke-linecap="round" fill="none" class="id_n38 id_n47"
              d="M -608.586121,242.581207 A 216.018007,216.018007 0,0 1,-589.403564,7.914561"
              stroke="#00ff4d" stroke-width="3.0" stroke-opacity="1.0"/>
        <path stroke-linecap="round" fill="none" class="id_n39 id_n63"
              d="M 713.200256,318.534241 A 346.755790,346.755790 0,0 1,479.913849,2.826808"
              stroke="#00ffa6" stroke-width="3.0" stroke-opacity="1.0"/>
        <path stroke-linecap="round" fill="none" class="id_n40 id_n39"
              d="M 755.700745,384.224701 A 65.800384,65.800384 0,0 1,723.891663,340.626373"
              stroke="#00ff4d" stroke-width="3.0" stroke-opacity="1.0"/>
        <path stroke-linecap="round" fill="none" class="id_n41 id_n63"
              d="M 604.498718,0.727433 A 111.664768,111.664768 0,0 1,494.921326,-4.701227"
              stroke="#00ffa6" stroke-width="3.0" stroke-opacity="1.0"/>
        <path stroke-linecap="round" fill="none" class="id_n42 id_n47"
              d="M -656.180054,-93.320152 A 104.572362,104.572362 0,0 1,-581.548462,-25.074421"
              stroke="#00ff4d" stroke-width="3.0" stroke-opacity="1.0"/>
        <path stroke-linecap="round" fill="none" class="id_n43 id_n63"
              d="M 368.588623,-83.507767 A 115.097308,115.097308 0,0 1,470.518829,-32.765461"
              stroke="#00ffa6" stroke-width="3.0" stroke-opacity="1.0"/>
        <path stroke-linecap="round" fill="none" class="id_n44 id_n47"
              d="M -723.473022,-221.706818 A 223.530493,223.530493 0,0 1,-577.491882,-25.590631"
              stroke="#00ff4d" stroke-width="3.0" stroke-opacity="1.0"/>
        <path stroke-linecap="round" fill="none" class="id_n45 id_n63"
              d="M 658.539185,-332.360260 A 309.393095,309.393095 0,0 1,496.803558,-24.600842"
              stroke="#00ffa6" stroke-width="3.0" stroke-opacity="1.0"/>
        <path stroke-linecap="round" fill="none" class="id_n46 id_n47"
              d="M -829.840576,20.633694 A 218.530163,218.530163 0,0 1,-594.077148,-15.195459"
              stroke="#00ff4d" stroke-width="3.0" stroke-opacity="1.0"/>
        <path stroke-linecap="round" fill="none" class="id_n47 id_n63"
              d="M -569.155945,-12.621010 A 880.795151,880.795151 0,0 1,464.351898,-27.268761"
              stroke="#00ffa6" stroke-width="3.0" stroke-opacity="1.0"/>
        <path stroke-linecap="round" fill="none" class="id_n48 id_n47"
              d="M -568.757874,114.829651 A 108.209148,108.209148 0,0 1,-585.236816,10.592384"
              stroke="#00ff4d" stroke-width="3.0" stroke-opacity="1.0"/>
        <path stroke-linecap="round" fill="none" class="id_n49 id_n63"
              d="M 565.401917,81.976524 A 115.317238,115.317238 0,0 1,483.544495,2.449675"
              stroke="#00ffa6" stroke-width="3.0" stroke-opacity="1.0"/>
        <path stroke-linecap="round" fill="none" class="id_n50 id_n47"
              d="M -490.152863,82.514359 A 110.550024,110.550024 0,0 1,-572.230713,11.762002"
              stroke="#00ff4d" stroke-width="3.0" stroke-opacity="1.0"/>
        <path stroke-linecap="round" fill="none" class="id_n51 id_n63"
              d="M 536.639404,-129.186905 A 112.206340,112.206340 0,0 1,495.558136,-26.750887"
              stroke="#00ffa6" stroke-width="3.0" stroke-opacity="1.0"/>
        <path stroke-linecap="round" fill="none" class="id_n52 id_n47"
              d="M -655.772888,87.704704 A 109.101800,109.101800 0,0 1,-594.882324,0.192371"
              stroke="#00ff4d" stroke-width="3.0" stroke-opacity="1.0"/>
        <path stroke-linecap="round" fill="none" class="id_n53 id_n63"
              d="M 433.179596,103.093071 A 113.480856,113.480856 0,0 1,465.033966,-4.185327"
              stroke="#00ffa6" stroke-width="3.0" stroke-opacity="1.0"/>
        <path stroke-linecap="round" fill="none" class="id_n54 id_n47"
              d="M -685.241882,-50.212437 A 103.932122,103.932122 0,0 1,-589.133667,-21.326490"
              stroke="#00ff4d" stroke-width="3.0" stroke-opacity="1.0"/>
        <path stroke-linecap="round" fill="none" class="id_n55 id_n63"
              d="M 573.630310,-95.646439 A 109.267091,109.267091 0,0 1,498.426239,-19.797258"
              stroke="#00ffa6" stroke-width="3.0" stroke-opacity="1.0"/>
        <path stroke-linecap="round" fill="none" class="id_n56 id_n47"
              d="M -584.342651,-260.380951 A 218.298331,218.298331 0,0 1,-567.226074,-22.805109"
              stroke="#00ff4d" stroke-width="3.0" stroke-opacity="1.0"/>
        <path stroke-linecap="round" fill="none" class="id_n57 id_n63"
              d="M 489.318024,-140.789200 A 110.930540,110.930540 0,0 1,490.331787,-31.970097"
              stroke="#00ffa6" stroke-width="3.0" stroke-opacity="1.0"/>
        <path stroke-linecap="round" fill="none" class="id_n58 id_n47"
              d="M -519.166687,-118.364677 A 111.702813,111.702813 0,0 1,-561.230042,-16.986910"
              stroke="#00ff4d" stroke-width="3.0" stroke-opacity="1.0"/>
        <path stroke-linecap="round" fill="none" class="id_n59 id_n63"
              d="M 446.320496,-268.445038 A 218.791266,218.791266 0,0 1,487.960205,-33.319275"
              stroke="#00ffa6" stroke-width="3.0" stroke-opacity="1.0"/>
        <path stroke-linecap="round" fill="none" class="id_n60 id_n47"
              d="M -811.930786,-117.465546 A 223.102764,223.102764 0,0 1,-587.085083,-22.780640"
              stroke="#00ff4d" stroke-width="3.0" stroke-opacity="1.0"/>
        <path stroke-linecap="round" fill="none" class="id_n61 id_n63"
              d="M 832.066223,22.977482 A 302.091180,302.091180 0,0 1,494.231354,-3.843085"
              stroke="#00ffa6" stroke-width="3.0" stroke-opacity="1.0"/>
        <path stroke-linecap="round" fill="none" class="id_n62 id_n47"
              d="M -836.316040,230.664322 A 299.522769,299.522769 0,0 1,-595.932983,-3.826369"
              stroke="#00ff4d" stroke-width="3.0" stroke-opacity="1.0"/>
        <path fill="none" stroke-width="3.0"
              d="M 479.775177,-16.172686 C 499.775177,-36.172684 499.775177,3.827314 479.775177,-16.172686"
              class="id_n63" stroke-opacity="1.0" stroke="#00ffff"/>
    </g>
    <g id="arrows">
        <polyline fill="#00ff4d" fill-opacity="1.0" class="id_n0 id_n32"
                  points="830.295898,485.599518 835.336731,494.308167 826.353455,494.857361"
                  stroke="none"/>
        <polyline fill="#00ff4d" fill-opacity="1.0" class="id_n1 id_n56"
                  points="-585.914429,-277.058960 -585.710022,-287.119202 -577.743591,-282.931580"
                  stroke="none"/>
        <polyline fill="#00ff4d" fill-opacity="1.0" class="id_n2 id_n45"
                  points="664.023499,-349.637024 666.804626,-359.307373 673.428406,-353.214294"
                  stroke="none"/>
        <polyline fill="#00ff4d" fill-opacity="1.0" class="id_n3 id_n61"
                  points="850.070862,21.334579 860.069214,20.201794 856.976074,28.653580"
                  stroke="none"/>
        <polyline fill="#00ff4d" fill-opacity="1.0" class="id_n4 id_n11"
                  points="719.716309,-139.912125 728.801086,-144.238480 728.628235,-135.240128"
                  stroke="none"/>
        <polyline fill="#00ff4d" fill-opacity="1.0" class="id_n5 id_n59"
                  points="442.793152,-284.964661 441.698212,-294.967224 450.138214,-291.842163"
                  stroke="none"/>
        <polyline fill="#00ff4d" fill-opacity="1.0" class="id_n6 id_n47"
                  points="-586.189880,-10.839049 -596.248962,-10.585211 -592.428406,-18.734030"
                  stroke="none"/>
        <polyline fill="#00ffa6" fill-opacity="1.0" class="id_n7 id_n63"
                  points="485.012329,-7.653754 493.559296,-2.343436 485.892242,2.370005"
                  stroke="none"/>
        <polyline fill="#00ff4d" fill-opacity="1.0" class="id_n8 id_n38"
                  points="-609.260071,259.537598 -610.601990,269.510010 -618.043152,264.447571"
                  stroke="none"/>
        <polyline fill="#00ff4d" fill-opacity="1.0" class="id_n9 id_n62"
                  points="-846.778625,245.572708 -852.243896,254.021393 -856.816772,246.269653"
                  stroke="none"/>
        <polyline fill="#00ff4d" fill-opacity="1.0" class="id_n10 id_n47"
                  points="-575.136047,-16.392014 -577.745483,-26.110067 -568.927246,-24.310434"
                  stroke="none"/>
        <polyline fill="#00ffa6" fill-opacity="1.0" class="id_n11 id_n63"
                  points="489.719574,-15.119517 499.143463,-18.646641 498.195587,-9.696692"
                  stroke="none"/>
        <polyline fill="#00ff4d" fill-opacity="1.0" class="id_n12 id_n47"
                  points="-584.464233,0.209821 -587.998230,9.631105 -594.121643,3.035363"
                  stroke="none"/>
        <polyline fill="#00ffa6" fill-opacity="1.0" class="id_n13 id_n63"
                  points="470.381683,-19.602322 460.384216,-18.461926 463.470886,-26.916061"
                  stroke="none"/>
        <polyline fill="#00ff4d" fill-opacity="1.0" class="id_n14 id_n47"
                  points="-587.133667,-6.791627 -596.220825,-2.470397 -596.042969,-11.468639"
                  stroke="none"/>
        <polyline fill="#00ffa6" fill-opacity="1.0" class="id_n15 id_n63"
                  points="473.654846,-8.264360 471.705292,1.607279 464.587799,-3.901014"
                  stroke="none"/>
        <polyline fill="#00ff4d" fill-opacity="1.0" class="id_n16 id_n44"
                  points="-733.529541,-234.928772 -738.557861,-243.644638 -729.573853,-244.180923"
                  stroke="none"/>
        <polyline fill="#00ff4d" fill-opacity="1.0" class="id_n17 id_n60"
                  points="-827.365051,-123.714912 -836.156067,-128.610733 -828.722961,-133.685165"
                  stroke="none"/>
        <polyline fill="#00ff4d" fill-opacity="1.0" class="id_n18 id_n45"
                  points="666.724792,-345.485474 673.805359,-352.635010 676.692810,-344.110779"
                  stroke="none"/>
        <polyline fill="#00ff4d" fill-opacity="1.0" class="id_n19 id_n61"
                  points="847.150818,25.521980 856.405518,29.471874 849.543701,35.295628"
                  stroke="none"/>
        <polyline fill="#00ff4d" fill-opacity="1.0" class="id_n20 id_n47"
                  points="-578.035706,3.365439 -574.364014,12.733944 -583.327515,11.923874"
                  stroke="none"/>
        <polyline fill="#00ffa6" fill-opacity="1.0" class="id_n21 id_n63"
                  points="489.488037,-13.793484 499.300232,-16.022984 497.158936,-7.281422"
                  stroke="none"/>
        <polyline fill="#00ff4d" fill-opacity="1.0" class="id_n22 id_n47"
                  points="-571.226074,1.473061 -562.277222,6.074083 -569.537598,11.392694"
                  stroke="none"/>
        <polyline fill="#00ffa6" fill-opacity="1.0" class="id_n23 id_n63"
                  points="472.174988,-22.671711 462.410278,-25.100758 468.259399,-31.940914"
                  stroke="none"/>
        <polyline fill="#00ff4d" fill-opacity="1.0" class="id_n24 id_n46"
                  points="-846.250366,23.306931 -856.306213,23.666973 -852.571960,15.478265"
                  stroke="none"/>
        <polyline fill="#00ff4d" fill-opacity="1.0" class="id_n25 id_n62"
                  points="-848.165466,240.545410 -857.141235,245.093597 -857.189453,236.093719"
                  stroke="none"/>
        <polyline fill="#00ff4d" fill-opacity="1.0" class="id_n26 id_n47"
                  points="-568.577087,-1.421788 -558.546936,-0.618165 -563.201843,7.084517"
                  stroke="none"/>
        <polyline fill="#00ffa6" fill-opacity="1.0" class="id_n27 id_n63"
                  points="474.867035,-7.460050 474.370361,2.589993 466.528992,-1.827347"
                  stroke="none"/>
        <polyline fill="#00ff4d" fill-opacity="1.0" class="id_n28 id_n47"
                  points="-567.246948,-5.106011 -557.677551,-8.216752 -559.016663,0.683059"
                  stroke="none"/>
        <polyline fill="#00ffa6" fill-opacity="1.0" class="id_n29 id_n63"
                  points="469.775208,-16.194935 460.765228,-11.714972 460.785248,-20.714949"
                  stroke="none"/>
        <polyline fill="#00ff4d" fill-opacity="1.0" class="id_n30 id_n47"
                  points="-567.379333,-8.788350 -559.586182,-15.153609 -557.611206,-6.372972"
                  stroke="none"/>
        <polyline fill="#00ffa6" fill-opacity="1.0" class="id_n31 id_n63"
                  points="481.730530,-25.979650 479.077209,-35.685829 487.903503,-33.926003"
                  stroke="none"/>
        <polyline fill="#00ff4d" fill-opacity="1.0" class="id_n32 id_n39"
                  points="722.944458,331.660858 727.665039,340.547180 718.667725,340.769104"
                  stroke="none"/>
        <polyline fill="#00ffa6" fill-opacity="1.0" class="id_n33 id_n63"
                  points="478.290588,-6.283501 481.404572,3.284834 472.504303,1.948698"
                  stroke="none"/>
        <polyline fill="#00ff4d" fill-opacity="1.0" class="id_n34 id_n47"
                  points="-571.367615,-14.762810 -569.852356,-24.710375 -562.500427,-19.519156"
                  stroke="none"/>
        <polyline fill="#00ffa6" fill-opacity="1.0" class="id_n35 id_n63"
                  points="478.176117,-26.044006 472.294830,-34.208618 481.179047,-35.647774"
                  stroke="none"/>
        <polyline fill="#00ff4d" fill-opacity="1.0" class="id_n36 id_n15"
                  points="458.542206,254.015442 456.906403,263.943878 449.617950,258.663849"
                  stroke="none"/>
        <polyline fill="#00ffa6" fill-opacity="1.0" class="id_n37 id_n63"
                  points="470.330505,-12.886618 463.309052,-5.679056 460.351593,-14.179256"
                  stroke="none"/>
        <polyline fill="#00ff4d" fill-opacity="1.0" class="id_n38 id_n47"
                  points="-583.592407,1.042098 -585.967346,10.820127 -592.839783,5.008994"
                  stroke="none"/>
        <polyline fill="#00ffa6" fill-opacity="1.0" class="id_n39 id_n63"
                  points="479.848175,-6.172952 484.413727,2.793965 475.413971,2.859653"
                  stroke="none"/>
        <polyline fill="#00ff4d" fill-opacity="1.0" class="id_n40 id_n39"
                  points="723.326172,331.644165 728.382751,340.343628 719.400574,340.909119"
                  stroke="none"/>
        <polyline fill="#00ffa6" fill-opacity="1.0" class="id_n41 id_n63"
                  points="487.746826,-10.135077 497.638245,-8.288473 492.204407,-1.113984"
                  stroke="none"/>
        <polyline fill="#00ff4d" fill-opacity="1.0" class="id_n42 id_n47"
                  points="-579.458130,-16.320522 -585.925415,-24.029278 -577.171509,-26.119564"
                  stroke="none"/>
        <polyline fill="#00ffa6" fill-opacity="1.0" class="id_n43 id_n63"
                  points="474.903412,-24.905724 466.588959,-30.573166 474.448700,-34.957748"
                  stroke="none"/>
        <polyline fill="#00ff4d" fill-opacity="1.0" class="id_n44 id_n47"
                  points="-577.323120,-16.592213 -581.991089,-25.506256 -572.992676,-25.675007"
                  stroke="none"/>
        <polyline fill="#00ffa6" fill-opacity="1.0" class="id_n45 id_n63"
                  points="488.737488,-20.608559 494.807404,-28.633883 498.799713,-20.567801"
                  stroke="none"/>
        <polyline fill="#00ff4d" fill-opacity="1.0" class="id_n46 id_n47"
                  points="-586.052185,-11.121071 -596.114319,-11.183001 -592.039978,-19.207920"
                  stroke="none"/>
        <polyline fill="#00ffa6" fill-opacity="1.0" class="id_n47 id_n63"
                  points="471.657654,-22.012726 461.723877,-23.615883 466.979919,-30.921638"
                  stroke="none"/>
        <polyline fill="#00ff4d" fill-opacity="1.0" class="id_n48 id_n47"
                  points="-581.399414,2.451479 -581.166382,12.511086 -589.307251,8.673683"
                  stroke="none"/>
        <polyline fill="#00ffa6" fill-opacity="1.0" class="id_n49 id_n63"
                  points="481.759033,-6.371443 487.955048,1.556944 479.133942,3.342405"
                  stroke="none"/>
        <polyline fill="#00ff4d" fill-opacity="1.0" class="id_n50 id_n47"
                  points="-574.554077,3.067067 -567.883240,10.600309 -576.578186,12.923693"
                  stroke="none"/>
        <polyline fill="#00ffa6" fill-opacity="1.0" class="id_n51 id_n63"
                  points="488.082001,-21.740160 493.052765,-30.488955 498.063507,-23.012819"
                  stroke="none"/>
        <polyline fill="#00ff4d" fill-opacity="1.0" class="id_n52 id_n47"
                  points="-586.476013,-3.022213 -593.275024,4.395537 -596.489624,-4.010797"
                  stroke="none"/>
        <polyline fill="#00ffa6" fill-opacity="1.0" class="id_n53 id_n63"
                  points="472.016632,-9.863549 467.873077,-0.693988 462.194855,-7.676665"
                  stroke="none"/>
        <polyline fill="#00ff4d" fill-opacity="1.0" class="id_n54 id_n47"
                  points="-583.450378,-14.347928 -592.622925,-18.484848 -585.644409,-24.168129"
                  stroke="none"/>
        <polyline fill="#00ffa6" fill-opacity="1.0" class="id_n55 id_n63"
                  points="489.591522,-18.080355 497.567780,-24.214617 499.284698,-15.379900"
                  stroke="none"/>
        <polyline fill="#00ff4d" fill-opacity="1.0" class="id_n56 id_n47"
                  points="-571.920044,-15.126149 -571.065552,-25.152105 -563.386597,-20.458113"
                  stroke="none"/>
        <polyline fill="#00ffa6" fill-opacity="1.0" class="id_n57 id_n63"
                  points="485.331268,-24.487114 486.590302,-34.470345 494.073273,-29.469849"
                  stroke="none"/>
        <polyline fill="#00ff4d" fill-opacity="1.0" class="id_n58 id_n47"
                  points="-568.764282,-12.063940 -563.691528,-20.754019 -558.768555,-13.219806"
                  stroke="none"/>
        <polyline fill="#00ffa6" fill-opacity="1.0" class="id_n59 id_n63"
                  points="484.083069,-25.197206 483.899170,-35.257832 492.021240,-31.380718"
                  stroke="none"/>
        <polyline fill="#00ff4d" fill-opacity="1.0" class="id_n60 id_n47"
                  points="-582.372192,-15.113270 -590.918762,-20.424189 -583.251404,-25.137091"
                  stroke="none"/>
        <polyline fill="#00ffa6" fill-opacity="1.0" class="id_n61 id_n63"
                  points="487.383698,-9.683422 497.151520,-7.266915 491.311188,-0.419254"
                  stroke="none"/>
        <polyline fill="#00ff4d" fill-opacity="1.0" class="id_n62 id_n47"
                  points="-587.028992,-5.137339 -595.277527,0.625635 -596.588440,-8.278374"
                  stroke="none"/>
    </g>
    <g id="nodes">
        <circle fill-opacity="1.0" fill="#00ff4d" r="9.2" cx="870.79694"
                class="id_n0" cy="541.57886" stroke="#00b235"
                stroke-opacity="1.0" stroke-width="1.5999999"/>
        <circle fill-opacity="1.0" fill="#00ff4d" r="9.2" cx="-595.4564"
                class="id_n1" cy="-370.35327" stroke="#00b235"
                stroke-opacity="1.0" stroke-width="1.5999999"/>
        <circle fill-opacity="1.0" fill="#00ff4d" r="9.2" cx="678.55035"
                class="id_n2" cy="-440.16168" stroke="#00b235"
                stroke-opacity="1.0" stroke-width="1.5999999"/>
        <circle fill-opacity="1.0" fill="#00ff4d" r="9.2" cx="937.17487"
                class="id_n3" cy="0.72798985" stroke="#00b235"
                stroke-opacity="1.0" stroke-width="1.5999999"/>
        <circle fill-opacity="1.0" fill="#00ff4d" r="9.2" cx="798.8808"
                class="id_n4" cy="-190.28827" stroke="#00b235"
                stroke-opacity="1.0" stroke-width="1.5999999"/>
        <circle fill-opacity="1.0" fill="#00ff4d" r="9.2" cx="421.26184"
                class="id_n5" cy="-376.36658" stroke="#00b235"
                stroke-opacity="1.0" stroke-width="1.5999999"/>
        <circle fill-opacity="1.0" fill="#00ff4d" r="9.2" cx="-701.2661"
                class="id_n6" cy="7.5820656" stroke="#00b235"
                stroke-opacity="1.0" stroke-width="1.5999999"/>
        <circle fill-opacity="1.0" fill="#00ff4d" r="9.2" cx="602.44525"
                class="id_n7" cy="44.524426" stroke="#00b235"
                stroke-opacity="1.0" stroke-width="1.5999999"/>
        <circle fill-opacity="1.0" fill="#00ff4d" r="9.2" cx="-610.4126"
                class="id_n8" cy="351.73486" stroke="#00b235"
                stroke-opacity="1.0" stroke-width="1.5999999"/>
        <circle fill-opacity="1.0" fill="#00ff4d" r="9.2" cx="-885.5953"
                class="id_n9" cy="324.79868" stroke="#00b235"
                stroke-opacity="1.0" stroke-width="1.5999999"/>
        <circle fill-opacity="1.0" fill="#00ff4d" r="9.2" cx="-620.87164"
                class="id_n10" cy="-125.611626" stroke="#00b235"
                stroke-opacity="1.0" stroke-width="1.5999999"/>
        <circle fill-opacity="1.0" fill="#00ff4d" r="9.2" cx="709.71814"
                class="id_n11" cy="-140.10414" stroke="#00b235"
                stroke-opacity="1.0" stroke-width="1.5999999"/>
        <circle fill-opacity="1.0" fill="#00ff4d" r="9.2" cx="-611.2062"
                class="id_n12" cy="117.667564" stroke="#00b235"
                stroke-opacity="1.0" stroke-width="1.5999999"/>
        <circle fill-opacity="1.0" fill="#00ff4d" r="9.2" cx="345.589"
                class="id_n13" cy="12.463082" stroke="#00b235"
                stroke-opacity="1.0" stroke-width="1.5999999"/>
        <circle fill-opacity="1.0" fill="#00ff4d" r="9.2" cx="-687.5367"
                class="id_n14" cy="58.801838" stroke="#00b235"
                stroke-opacity="1.0" stroke-width="1.5999999"/>
        <circle fill-opacity="1.0" fill="#00ff4d" r="9.2" cx="464.4089"
                class="id_n15" cy="245.91718" stroke="#00b235"
                stroke-opacity="1.0" stroke-width="1.5999999"/>
        <circle fill-opacity="1.0" fill="#00ff4d" r="9.2" cx="-791.66614"
                class="id_n16" cy="-311.86618" stroke="#00b235"
                stroke-opacity="1.0" stroke-width="1.5999999"/>
        <circle fill-opacity="1.0" fill="#00ff4d" r="9.2" cx="-915.99713"
                class="id_n17" cy="-159.60847" stroke="#00b235"
                stroke-opacity="1.0" stroke-width="1.5999999"/>
        <circle fill-opacity="1.0" fill="#00ff4d" r="9.2" cx="722.7928"
                class="id_n18" cy="-417.7636" stroke="#00b235"
                stroke-opacity="1.0" stroke-width="1.5999999"/>
        <circle fill-opacity="1.0" fill="#00ff4d" r="9.2" cx="931.36847"
                class="id_n19" cy="50.20593" stroke="#00b235"
                stroke-opacity="1.0" stroke-width="1.5999999"/>
        <circle fill-opacity="1.0" fill="#00ff4d" r="9.2" cx="-515.709"
                class="id_n20" cy="114.53274" stroke="#00b235"
                stroke-opacity="1.0" stroke-width="1.5999999"/>
        <circle fill-opacity="1.0" fill="#00ff4d" r="9.2" cx="603.6024"
                class="id_n21" cy="-56.61074" stroke="#00b235"
                stroke-opacity="1.0" stroke-width="1.5999999"/>
        <circle fill-opacity="1.0" fill="#00ff4d" r="9.2" cx="-456.62827"
                class="id_n22" cy="41.945686" stroke="#00b235"
                stroke-opacity="1.0" stroke-width="1.5999999"/>
        <circle fill-opacity="1.0" fill="#00ff4d" r="9.2" cx="344.41046"
                class="id_n23" cy="-36.265125" stroke="#00b235"
                stroke-opacity="1.0" stroke-width="1.5999999"/>
        <circle fill-opacity="1.0" fill="#00ff4d" r="9.2" cx="-938.4896"
                class="id_n24" cy="37.983753" stroke="#00b235"
                stroke-opacity="1.0" stroke-width="1.5999999"/>
        <circle fill-opacity="1.0" fill="#00ff4d" r="9.2" cx="-921.2349"
                class="id_n25" cy="289.1848" stroke="#00b235"
                stroke-opacity="1.0" stroke-width="1.5999999"/>
        <circle fill-opacity="1.0" fill="#00ff4d" r="9.2" cx="-448.60208"
                class="id_n26" cy="-8.0206995" stroke="#00b235"
                stroke-opacity="1.0" stroke-width="1.5999999"/>
        <circle fill-opacity="1.0" fill="#00ff4d" r="9.2" cx="485.84277"
                class="id_n27" cy="117.68782" stroke="#00b235"
                stroke-opacity="1.0" stroke-width="1.5999999"/>
        <circle fill-opacity="1.0" fill="#00ff4d" r="9.2" cx="-457.85965"
                class="id_n28" cy="-57.9026" stroke="#00b235"
                stroke-opacity="1.0" stroke-width="1.5999999"/>
        <circle fill-opacity="1.0" fill="#00ff4d" r="9.2" cx="362.17508"
                class="id_n29" cy="57.392933" stroke="#00b235"
                stroke-opacity="1.0" stroke-width="1.5999999"/>
        <circle fill-opacity="1.0" fill="#00ff4d" r="9.2" cx="-482.4607"
                class="id_n30" cy="-100.05426" stroke="#00b235"
                stroke-opacity="1.0" stroke-width="1.5999999"/>
        <circle fill-opacity="1.0" fill="#00ff4d" r="9.2" cx="432.29666"
                class="id_n31" cy="-141.68494" stroke="#00b235"
                stroke-opacity="1.0" stroke-width="1.5999999"/>
        <circle fill-opacity="1.0" fill="#00ff4d" r="9.2" cx="829.6857"
                class="id_n32" cy="475.61816" stroke="#00b235"
                stroke-opacity="1.0" stroke-width="1.5999999"/>
        <circle fill-opacity="1.0" fill="#00ff4d" r="9.2" cx="534.7635"
                class="id_n33" cy="109.835266" stroke="#00b235"
                stroke-opacity="1.0" stroke-width="1.5999999"/>
        <circle fill-opacity="1.0" fill="#00ff4d" r="9.2" cx="-569.4144"
                class="id_n34" cy="-134.93698" stroke="#00b235"
                stroke-opacity="1.0" stroke-width="1.5999999"/>
        <circle fill-opacity="1.0" fill="#00ff4d" r="9.2" cx="387.82758"
                class="id_n35" cy="-120.5732" stroke="#00b235"
                stroke-opacity="1.0" stroke-width="1.5999999"/>
        <circle fill-opacity="1.0" fill="#00ff4d" r="9.2" cx="454.6724"
                class="id_n36" cy="346.45322" stroke="#00b235"
                stroke-opacity="1.0" stroke-width="1.5999999"/>
        <circle fill-opacity="1.0" fill="#00ff4d" r="9.2" cx="391.8974"
                class="id_n37" cy="93.96226" stroke="#00b235"
                stroke-opacity="1.0" stroke-width="1.5999999"/>
        <circle fill-opacity="1.0" fill="#00ff4d" r="9.2" cx="-603.63513"
                class="id_n38" cy="251.26959" stroke="#00b235"
                stroke-opacity="1.0" stroke-width="1.5999999"/>
        <circle fill-opacity="1.0" fill="#00ff4d" r="9.2" cx="722.6979"
                class="id_n39" cy="321.6639" stroke="#00b235"
                stroke-opacity="1.0" stroke-width="1.5999999"/>
        <circle fill-opacity="1.0" fill="#00ff4d" r="9.2" cx="764.7403"
                class="id_n40" cy="388.50095" stroke="#00b235"
                stroke-opacity="1.0" stroke-width="1.5999999"/>
        <circle fill-opacity="1.0" fill="#00ff4d" r="9.2" cx="613.23193"
                class="id_n41" cy="-4.1440454" stroke="#00b235"
                stroke-opacity="1.0" stroke-width="1.5999999"/>
        <circle fill-opacity="1.0" fill="#00ff4d" r="9.2" cx="-666.0035"
                class="id_n42" cy="-95.19109" stroke="#00b235"
                stroke-opacity="1.0" stroke-width="1.5999999"/>
        <circle fill-opacity="1.0" fill="#00ff4d" r="9.2" cx="358.63757"
                class="id_n43" cy="-82.51967" stroke="#00b235"
                stroke-opacity="1.0" stroke-width="1.5999999"/>
        <circle fill-opacity="1.0" fill="#00ff4d" r="9.2" cx="-732.93365"
                class="id_n44" cy="-224.94655" stroke="#00b235"
                stroke-opacity="1.0" stroke-width="1.5999999"/>
        <circle fill-opacity="1.0" fill="#00ff4d" r="9.2" cx="657.2534"
                class="id_n45" cy="-342.27725" stroke="#00b235"
                stroke-opacity="1.0" stroke-width="1.5999999"/>
        <circle fill-opacity="1.0" fill="#00ff4d" r="9.2" cx="-837.1518"
                class="id_n46" cy="27.456165" stroke="#00b235"
                stroke-opacity="1.0" stroke-width="1.5999999"/>
        <circle fill-opacity="1.0" fill="#00ff4d" r="9.2" cx="-577.1356"
                class="id_n47" cy="-6.5939713" stroke="#00b235"
                stroke-opacity="1.0" stroke-width="1.5999999"/>
        <circle fill-opacity="1.0" fill="#00ff4d" r="9.2" cx="-562.22144"
                class="id_n48" cy="122.39768" stroke="#00b235"
                stroke-opacity="1.0" stroke-width="1.5999999"/>
        <circle fill-opacity="1.0" fill="#00ff4d" r="9.2" cx="575.1824"
                class="id_n49" cy="84.060455" stroke="#00b235"
                stroke-opacity="1.0" stroke-width="1.5999999"/>
        <circle fill-opacity="1.0" fill="#00ff4d" r="9.2" cx="-480.27115"
                class="id_n50" cy="84.04796" stroke="#00b235"
                stroke-opacity="1.0" stroke-width="1.5999999"/>
        <circle fill-opacity="1.0" fill="#00ff4d" r="9.2" cx="534.8754"
                class="id_n51" cy="-139.03009" stroke="#00b235"
                stroke-opacity="1.0" stroke-width="1.5999999"/>
        <circle fill-opacity="1.0" fill="#00ff4d" r="9.2" cx="-656.28845"
                class="id_n52" cy="97.69141" stroke="#00b235"
                stroke-opacity="1.0" stroke-width="1.5999999"/>
        <circle fill-opacity="1.0" fill="#00ff4d" r="9.2" cx="435.85703"
                class="id_n53" cy="112.727974" stroke="#00b235"
                stroke-opacity="1.0" stroke-width="1.5999999"/>
        <circle fill-opacity="1.0" fill="#00ff4d" r="9.2" cx="-694.90576"
                class="id_n54" cy="-47.64163" stroke="#00b235"
                stroke-opacity="1.0" stroke-width="1.5999999"/>
        <circle fill-opacity="1.0" fill="#00ff4d" r="9.2" cx="575.8582"
                class="id_n55" cy="-105.395096" stroke="#00b235"
                stroke-opacity="1.0" stroke-width="1.5999999"/>
        <circle fill-opacity="1.0" fill="#00ff4d" r="9.2" cx="-590.5673"
                class="id_n56" cy="-268.2074" stroke="#00b235"
                stroke-opacity="1.0" stroke-width="1.5999999"/>
        <circle fill-opacity="1.0" fill="#00ff4d" r="9.2" cx="483.94638"
                class="id_n57" cy="-149.22397" stroke="#00b235"
                stroke-opacity="1.0" stroke-width="1.5999999"/>
        <circle fill-opacity="1.0" fill="#00ff4d" r="9.2" cx="-520.80975"
                class="id_n58" cy="-128.22878" stroke="#00b235"
                stroke-opacity="1.0" stroke-width="1.5999999"/>
        <circle fill-opacity="1.0" fill="#00ff4d" r="9.2" cx="439.32086"
                class="id_n59" cy="-275.58685" stroke="#00b235"
                stroke-opacity="1.0" stroke-width="1.5999999"/>
        <circle fill-opacity="1.0" fill="#00ff4d" r="9.2" cx="-821.7268"
                class="id_n60" cy="-115.45597" stroke="#00b235"
                stroke-opacity="1.0" stroke-width="1.5999999"/>
        <circle fill-opacity="1.0" fill="#00ff4d" r="9.2" cx="840.68"
                class="id_n61" cy="17.897793" stroke="#00b235"
                stroke-opacity="1.0" stroke-width="1.5999999"/>
        <circle fill-opacity="1.0" fill="#00ff4d" r="9.2" cx="-838.1656"
                class="id_n62" cy="240.49179" stroke="#00b235"
                stroke-opacity="1.0" stroke-width="1.5999999"/>
        <circle fill-opacity="1.0" fill="#00ffff" r="9.2" cx="479.77518"
                class="id_n63" cy="-16.172686" stroke="#00b2b2"
                stroke-opacity="1.0" stroke-width="1.5999999"/>
    </g>
</svg>